<svg width="166" height="52" viewBox="0 0 166 52" fill="none" xmlns="http://www.w3.org/2000/svg">
<path d="M160.812 52H5.1875C2.33437 52 0 49.66 0 46.8V5.2C0 2.34 2.33437 0 5.1875 0H160.812C163.666 0 166 2.34 166 5.2V46.8C166 49.66 163.666 52 160.812 52Z" fill="white"/>
<path d="M35.0154 25.74C35.0154 21.71 38.3873 19.76 38.517 19.63C36.5717 16.9 33.7185 16.51 32.681 16.38C30.217 16.12 27.7529 17.81 26.5857 17.81C25.2889 17.81 23.3435 16.38 21.2685 16.38C18.5451 16.38 16.081 17.94 14.6545 20.41C11.8014 25.35 13.8764 32.63 16.5998 36.66C18.0264 38.61 19.5826 40.82 21.6576 40.69C23.7326 40.56 24.5107 39.39 26.9748 39.39C29.4389 39.39 30.0873 40.69 32.292 40.69C34.4967 40.69 35.9232 38.74 37.2201 36.79C38.7764 34.58 39.4248 32.37 39.4248 32.24C39.2951 32.11 35.0154 30.55 35.0154 25.74Z" fill="#1D1937"/>
<path d="M30.9957 13.78C32.0332 12.35 32.8114 10.53 32.6817 8.57996C31.1254 8.70996 29.0504 9.61996 28.0129 11.05C26.9754 12.22 26.0676 14.17 26.327 15.99C28.0129 16.12 29.8286 15.08 30.9957 13.78Z" fill="#1D1937"/>
<path d="M64.5844 40.43H61.7313L60.175 35.49H54.7281L53.3016 40.43H50.5781L56.025 23.66H59.3969L64.5844 40.43ZM59.6563 33.41L58.2297 28.99C58.1 28.6 57.8406 27.43 57.3219 25.87C57.1922 26.52 56.9328 27.69 56.5438 28.99L55.1172 33.41H59.6563Z" fill="#1D1937"/>
<path d="M78.4609 34.32C78.4609 36.4 77.9422 37.96 76.775 39.26C75.7375 40.3 74.5703 40.82 73.0141 40.82C71.4578 40.82 70.2906 40.3 69.6422 39.13V45.5H66.9188V32.5C66.9188 31.2 66.9188 29.9 66.7891 28.47H69.1234L69.2531 30.42C70.1609 28.99 71.4578 28.21 73.2734 28.21C74.7 28.21 75.8672 28.73 76.775 29.9C77.9422 30.94 78.4609 32.37 78.4609 34.32ZM75.7375 34.32C75.7375 33.15 75.4781 32.11 74.9594 31.46C74.4406 30.68 73.6625 30.29 72.625 30.29C71.9766 30.29 71.3281 30.55 70.8094 30.94C70.2906 31.33 69.9016 31.98 69.7719 32.63C69.6422 33.02 69.6422 33.28 69.6422 33.41V35.49C69.6422 36.4 69.9016 37.05 70.4203 37.7C70.9391 38.35 71.7172 38.61 72.4953 38.61C73.5328 38.61 74.3109 38.22 74.8297 37.44C75.4781 36.66 75.7375 35.62 75.7375 34.32Z" fill="#1D1937"/>
<path d="M92.3379 34.32C92.3379 36.4 91.8191 37.96 90.6519 39.26C89.6144 40.3 88.4473 40.82 86.891 40.82C85.3348 40.82 84.1676 40.3 83.5191 39.13V45.5H80.7957V32.5C80.7957 31.2 80.7957 29.9 80.666 28.47H83.0004L83.1301 30.42C84.0379 28.99 85.3348 28.21 87.1504 28.21C88.577 28.21 89.7441 28.73 90.6519 29.9C91.8191 30.94 92.3379 32.37 92.3379 34.32ZM89.6145 34.32C89.6145 33.15 89.3551 32.11 88.8363 31.46C88.3176 30.68 87.5395 30.29 86.502 30.29C85.8535 30.29 85.2051 30.55 84.6863 30.94C84.1676 31.33 83.7785 31.98 83.6488 32.63C83.5191 33.02 83.5191 33.28 83.5191 33.41V35.49C83.5191 36.4 83.7785 37.05 84.2973 37.7C84.816 38.35 85.5941 38.61 86.3723 38.61C87.4098 38.61 88.1879 38.22 88.7066 37.44C89.3551 36.66 89.6145 35.62 89.6145 34.32Z" fill="#1D1937"/>
<path d="M107.9 35.75C107.9 37.18 107.381 38.35 106.473 39.26C105.436 40.3 103.879 40.69 101.934 40.69C100.118 40.69 98.6918 40.3 97.6543 39.65L98.3027 37.44C99.4699 38.09 100.767 38.48 102.193 38.48C103.231 38.48 104.009 38.22 104.528 37.83C105.046 37.31 105.306 36.79 105.306 36.01C105.306 35.36 105.046 34.71 104.657 34.32C104.139 33.8 103.361 33.41 102.323 33.02C99.3402 31.98 97.9137 30.29 97.9137 28.21C97.9137 26.78 98.4324 25.74 99.4699 24.83C100.507 23.92 101.804 23.53 103.62 23.53C105.176 23.53 106.343 23.79 107.381 24.31L106.732 26.52C105.825 26 104.787 25.74 103.49 25.74C102.582 25.74 101.804 26 101.286 26.39C100.896 26.78 100.637 27.3 100.637 27.95C100.637 28.6 100.896 29.12 101.415 29.64C101.804 30.03 102.712 30.42 103.879 30.94C105.306 31.46 106.343 32.24 107.121 33.02C107.511 33.67 107.9 34.58 107.9 35.75Z" fill="#1D1937"/>
<path d="M116.718 30.42H113.736V36.27C113.736 37.7 114.254 38.48 115.292 38.48C115.811 38.48 116.2 38.48 116.459 38.35L116.589 40.43C116.07 40.69 115.421 40.69 114.514 40.69C113.476 40.69 112.568 40.43 112.05 39.78C111.401 39.13 111.142 38.09 111.142 36.53V30.42H109.326V28.34H111.142V26.13L113.736 25.35V28.34H116.718V30.42Z" fill="#1D1937"/>
<path d="M130.077 34.32C130.077 36.14 129.558 37.7 128.521 38.87C127.354 40.04 125.927 40.69 124.111 40.69C122.296 40.69 120.869 40.04 119.832 38.87C118.794 37.7 118.275 36.27 118.275 34.45C118.275 32.63 118.794 31.07 119.961 29.9C120.999 28.73 122.555 28.08 124.371 28.08C126.186 28.08 127.613 28.73 128.65 29.9C129.558 31.07 130.077 32.5 130.077 34.32ZM127.224 34.45C127.224 33.28 126.964 32.37 126.446 31.59C125.927 30.68 125.019 30.16 123.982 30.16C122.944 30.16 122.036 30.68 121.518 31.59C120.999 32.37 120.739 33.41 120.739 34.45C120.739 35.62 120.999 36.53 121.518 37.31C122.036 38.22 122.944 38.74 123.982 38.74C125.019 38.74 125.797 38.22 126.446 37.31C126.964 36.53 127.224 35.49 127.224 34.45Z" fill="#1D1937"/>
<path d="M138.765 30.68C138.506 30.68 138.247 30.55 137.858 30.55C136.95 30.55 136.172 30.94 135.653 31.59C135.264 32.24 135.004 33.02 135.004 33.93V40.3H132.281V31.98C132.281 30.55 132.281 29.38 132.151 28.21H134.486L134.615 30.55H134.745C135.004 29.77 135.523 29.12 136.042 28.6C136.69 28.21 137.339 27.95 137.987 27.95C138.247 27.95 138.506 27.95 138.636 27.95V30.68H138.765Z" fill="#1D1937"/>
<path d="M150.697 33.8C150.697 34.32 150.697 34.71 150.567 34.97H142.526C142.526 36.14 142.915 37.05 143.694 37.7C144.342 38.22 145.25 38.61 146.287 38.61C147.454 38.61 148.622 38.48 149.529 38.09L149.919 39.91C148.751 40.43 147.454 40.69 145.898 40.69C144.083 40.69 142.526 40.17 141.489 39C140.451 37.96 139.933 36.4 139.933 34.58C139.933 32.76 140.451 31.2 141.359 30.03C142.397 28.73 143.823 28.08 145.639 28.08C147.325 28.08 148.751 28.73 149.529 30.03C150.437 31.07 150.697 32.37 150.697 33.8ZM148.233 33.15C148.233 32.37 148.103 31.72 147.714 31.07C147.195 30.29 146.547 29.9 145.639 29.9C144.731 29.9 144.083 30.29 143.564 30.94C143.175 31.46 142.915 32.24 142.786 33.02H148.233V33.15Z" fill="#1D1937"/>
<path d="M58.8785 13.39C58.8785 14.82 58.4894 15.99 57.5816 16.77C56.8035 17.42 55.6363 17.81 54.0801 17.81C53.302 17.81 52.6535 17.81 52.1348 17.68V9.61999C52.7832 9.48999 53.5613 9.48999 54.4691 9.48999C55.8957 9.48999 56.9332 9.74999 57.7113 10.4C58.3598 11.05 58.8785 12.09 58.8785 13.39ZM57.452 13.39C57.452 12.48 57.1926 11.7 56.6738 11.18C56.1551 10.66 55.3769 10.4 54.4691 10.4C54.0801 10.4 53.691 10.4 53.4316 10.53V16.64C53.5613 16.64 53.9504 16.64 54.3394 16.64C55.3769 16.64 56.1551 16.38 56.6738 15.86C57.1926 15.34 57.452 14.43 57.452 13.39Z" fill="#1D1937"/>
<path d="M66.1406 14.69C66.1406 15.6 65.8813 16.38 65.3625 16.9C64.8438 17.55 64.0656 17.81 63.1578 17.81C62.25 17.81 61.6016 17.55 61.0828 16.9C60.5641 16.38 60.3047 15.6 60.3047 14.69C60.3047 13.78 60.5641 13 61.0828 12.48C61.6016 11.83 62.3797 11.57 63.2875 11.57C64.1953 11.57 64.8438 11.83 65.3625 12.48C65.8813 13 66.1406 13.78 66.1406 14.69ZM64.8438 14.69C64.8438 14.17 64.7141 13.65 64.4547 13.26C64.1953 12.74 63.8063 12.61 63.2875 12.61C62.7688 12.61 62.3797 12.87 62.1203 13.26C61.8609 13.65 61.7313 14.17 61.7313 14.69C61.7313 15.21 61.8609 15.73 62.1203 16.12C62.3797 16.64 62.7688 16.77 63.2875 16.77C63.8063 16.77 64.1953 16.51 64.4547 15.99C64.7141 15.73 64.8438 15.21 64.8438 14.69Z" fill="#1D1937"/>
<path d="M76.1266 11.7L74.3109 17.68H73.1438L72.3656 15.08C72.1063 14.43 71.9766 13.78 71.8469 13.13C71.7172 13.78 71.5875 14.43 71.3281 15.08L70.55 17.68H69.3828L67.4375 11.7H68.7344L69.3828 14.56C69.5125 15.21 69.6422 15.86 69.7719 16.51C69.9016 15.99 70.0313 15.34 70.2906 14.56L71.0688 11.7H72.1063L72.8844 14.43C73.1438 15.08 73.2734 15.73 73.4031 16.38C73.5328 15.73 73.6625 15.08 73.7922 14.43L74.5703 11.7H76.1266Z" fill="#1D1937"/>
<path d="M82.8703 17.68H81.5734V14.3C81.5734 13.26 81.1844 12.74 80.4062 12.74C80.0172 12.74 79.7578 12.87 79.4984 13.13C79.2391 13.39 79.1094 13.78 79.1094 14.17V17.68H77.8125V13.39C77.8125 12.87 77.8125 12.35 77.8125 11.7H78.9797V12.61C79.1094 12.35 79.3688 12.09 79.6281 11.83C80.0172 11.57 80.4063 11.44 80.7953 11.44C81.3141 11.44 81.8328 11.57 82.2219 11.96C82.7406 12.35 82.8703 13 82.8703 13.91V17.68Z" fill="#1D1937"/>
<path d="M86.502 17.68H85.2051V8.97003H86.502V17.68Z" fill="#1D1937"/>
<path d="M94.2832 14.69C94.2832 15.6 94.0238 16.38 93.5051 16.9C92.9863 17.55 92.2082 17.81 91.3004 17.81C90.3926 17.81 89.7441 17.55 89.2254 16.9C88.7066 16.38 88.4473 15.6 88.4473 14.69C88.4473 13.78 88.7066 13 89.2254 12.48C89.7441 11.96 90.5223 11.57 91.4301 11.57C92.3379 11.57 92.9863 11.83 93.5051 12.48C94.0238 13 94.2832 13.78 94.2832 14.69ZM92.9863 14.69C92.9863 14.17 92.8566 13.65 92.5973 13.26C92.3379 12.74 91.9488 12.61 91.4301 12.61C90.9113 12.61 90.5223 12.87 90.2629 13.26C90.0035 13.65 89.8738 14.17 89.8738 14.69C89.8738 15.21 90.0035 15.73 90.2629 16.12C90.5223 16.64 90.9113 16.77 91.4301 16.77C91.9488 16.77 92.3379 16.51 92.5973 15.99C92.8566 15.73 92.9863 15.21 92.9863 14.69Z" fill="#1D1937"/>
<path d="M100.637 17.68H99.4701L99.3404 17.03C98.9514 17.55 98.3029 17.81 97.6545 17.81C97.1357 17.81 96.617 17.68 96.3576 17.29C96.0982 16.9 95.8389 16.51 95.8389 16.12C95.8389 15.34 96.0982 14.82 96.7467 14.43C97.3951 14.04 98.1732 13.91 99.3404 13.91V13.78C99.3404 13 98.9514 12.61 98.1732 12.61C97.5248 12.61 97.1357 12.74 96.617 13L96.3576 12.09C96.8764 11.7 97.5248 11.57 98.4326 11.57C99.9889 11.57 100.767 12.35 100.767 14.04V16.25C100.637 16.9 100.637 17.29 100.637 17.68ZM99.3404 15.6V14.69C97.9139 14.69 97.1357 15.08 97.1357 15.86C97.1357 16.12 97.2654 16.38 97.3951 16.51C97.5248 16.64 97.7842 16.77 98.0436 16.77C98.3029 16.77 98.5623 16.64 98.8217 16.51C99.0811 16.38 99.2107 16.12 99.3404 15.86C99.3404 15.86 99.3404 15.73 99.3404 15.6Z" fill="#1D1937"/>
<path d="M108.16 17.68H106.992V16.77C106.603 17.55 105.955 17.81 105.047 17.81C104.269 17.81 103.75 17.55 103.231 17.03C102.713 16.51 102.583 15.73 102.583 14.82C102.583 13.91 102.842 13.13 103.361 12.48C103.88 11.96 104.528 11.7 105.177 11.7C105.955 11.7 106.474 11.96 106.863 12.48V9.09998H108.16V16.12C108.16 16.64 108.16 17.16 108.16 17.68ZM106.863 15.21V14.17C106.863 14.04 106.863 13.91 106.863 13.78C106.733 13.52 106.603 13.26 106.344 13C106.085 12.74 105.825 12.74 105.436 12.74C104.917 12.74 104.528 13 104.269 13.39C104.01 13.78 103.88 14.3 103.88 14.95C103.88 15.6 104.01 15.99 104.269 16.38C104.528 16.77 104.917 17.03 105.436 17.03C105.825 17.03 106.214 16.9 106.474 16.51C106.733 15.99 106.863 15.6 106.863 15.21Z" fill="#1D1937"/>
<path d="M119.442 14.69C119.442 15.6 119.183 16.38 118.664 16.9C118.146 17.55 117.367 17.81 116.46 17.81C115.552 17.81 114.903 17.55 114.385 16.9C113.866 16.38 113.606 15.6 113.606 14.69C113.606 13.78 113.866 13 114.385 12.48C114.903 11.83 115.681 11.57 116.589 11.57C117.497 11.57 118.146 11.83 118.664 12.48C119.183 13 119.442 13.78 119.442 14.69ZM118.016 14.69C118.016 14.17 117.886 13.65 117.627 13.26C117.367 12.74 116.978 12.61 116.46 12.61C115.941 12.61 115.552 12.87 115.292 13.26C115.033 13.65 114.903 14.17 114.903 14.69C114.903 15.21 115.033 15.73 115.292 16.12C115.552 16.64 115.941 16.77 116.46 16.77C116.978 16.77 117.367 16.51 117.627 15.99C117.886 15.73 118.016 15.21 118.016 14.69Z" fill="#1D1937"/>
<path d="M126.575 17.68H125.279V14.3C125.279 13.26 124.889 12.74 124.111 12.74C123.722 12.74 123.463 12.87 123.204 13.13C122.944 13.39 122.814 13.78 122.814 14.17V17.68H121.518V13.39C121.518 12.87 121.518 12.35 121.518 11.7H122.685V12.61C122.814 12.35 123.074 12.09 123.333 11.83C123.722 11.57 124.111 11.44 124.5 11.44C125.019 11.44 125.538 11.57 125.927 11.96C126.446 12.35 126.575 13 126.575 13.91V17.68Z" fill="#1D1937"/>
<path d="M135.394 12.74H133.968V15.6C133.968 16.38 134.227 16.64 134.746 16.64C135.005 16.64 135.135 16.64 135.394 16.64V17.68C135.135 17.81 134.746 17.81 134.357 17.81C133.838 17.81 133.449 17.68 133.189 17.29C132.93 17.03 132.8 16.38 132.8 15.73V12.74H131.893V11.7H132.8V10.66L134.097 10.27V11.7H135.524V12.74H135.394Z" fill="#1D1937"/>
<path d="M142.397 17.68H141.1V14.3C141.1 13.26 140.711 12.74 139.933 12.74C139.284 12.74 138.895 13 138.636 13.65C138.636 13.78 138.636 13.91 138.636 14.17V17.68H137.339V8.97003H138.636V12.61C139.025 11.96 139.673 11.57 140.451 11.57C140.97 11.57 141.489 11.7 141.748 12.09C142.137 12.48 142.397 13.26 142.397 14.04V17.68Z" fill="#1D1937"/>
<path d="M149.529 14.43C149.529 14.69 149.529 14.82 149.529 15.08H145.639C145.639 15.73 145.898 16.12 146.157 16.38C146.546 16.64 146.936 16.77 147.454 16.77C148.103 16.77 148.621 16.64 149.011 16.51L149.27 17.42C148.751 17.68 148.103 17.81 147.325 17.81C146.417 17.81 145.639 17.55 145.12 17.03C144.601 16.51 144.342 15.73 144.342 14.82C144.342 13.91 144.601 13.13 145.12 12.61C145.639 11.96 146.287 11.7 147.195 11.7C148.103 11.7 148.751 11.96 149.14 12.61C149.4 13 149.529 13.65 149.529 14.43ZM148.362 14.04C148.362 13.65 148.232 13.26 148.103 13C147.843 12.61 147.584 12.48 147.065 12.48C146.676 12.48 146.287 12.61 146.028 13C145.768 13.26 145.639 13.65 145.639 14.04H148.362Z" fill="#1D1937"/>
</svg>
