<svg width="166" height="53" viewBox="0 0 166 53" fill="none" xmlns="http://www.w3.org/2000/svg">
<path d="M160.812 52.5H5.1875C2.33437 52.5 0 50.16 0 47.3V5.7C0 2.84 2.33437 0.5 5.1875 0.5H160.812C163.666 0.5 166 2.84 166 5.7V47.3C166 50.16 163.666 52.5 160.812 52.5Z" fill="black"/>
<path d="M35.0154 26.24C35.0154 22.21 38.3873 20.26 38.517 20.13C36.5717 17.4 33.7185 17.01 32.681 16.88C30.217 16.62 27.7529 18.31 26.5857 18.31C25.2889 18.31 23.3435 16.88 21.2685 16.88C18.5451 16.88 16.081 18.44 14.6545 20.91C11.8014 25.85 13.8764 33.13 16.5998 37.16C18.0264 39.11 19.5826 41.32 21.6576 41.19C23.7326 41.06 24.5107 39.89 26.9748 39.89C29.4389 39.89 30.0873 41.19 32.292 41.19C34.4967 41.19 35.9232 39.24 37.2201 37.29C38.7764 35.08 39.4248 32.87 39.4248 32.74C39.2951 32.61 35.0154 31.05 35.0154 26.24Z" fill="white"/>
<path d="M30.9957 14.28C32.0332 12.85 32.8114 11.03 32.6817 9.07996C31.1254 9.20996 29.0504 10.12 28.0129 11.55C26.9754 12.72 26.0676 14.67 26.327 16.49C28.0129 16.62 29.8286 15.58 30.9957 14.28Z" fill="white"/>
<path d="M64.5844 40.93H61.7313L60.175 35.99H54.7281L53.3016 40.93H50.5781L56.025 24.16H59.3969L64.5844 40.93ZM59.6563 33.91L58.2297 29.49C58.1 29.1 57.8406 27.93 57.3219 26.37C57.1922 27.02 56.9328 28.19 56.5438 29.49L55.1172 33.91H59.6563Z" fill="white"/>
<path d="M78.4609 34.82C78.4609 36.9 77.9422 38.46 76.775 39.76C75.7375 40.8 74.5703 41.32 73.0141 41.32C71.4578 41.32 70.2906 40.8 69.6422 39.63V46H66.9188V33C66.9188 31.7 66.9188 30.4 66.7891 28.97H69.1234L69.2531 30.92C70.1609 29.49 71.4578 28.71 73.2734 28.71C74.7 28.71 75.8672 29.23 76.775 30.4C77.9422 31.44 78.4609 32.87 78.4609 34.82ZM75.7375 34.82C75.7375 33.65 75.4781 32.61 74.9594 31.96C74.4406 31.18 73.6625 30.79 72.625 30.79C71.9766 30.79 71.3281 31.05 70.8094 31.44C70.2906 31.83 69.9016 32.48 69.7719 33.13C69.6422 33.52 69.6422 33.78 69.6422 33.91V35.99C69.6422 36.9 69.9016 37.55 70.4203 38.2C70.9391 38.85 71.7172 39.11 72.4953 39.11C73.5328 39.11 74.3109 38.72 74.8297 37.94C75.4781 37.16 75.7375 36.12 75.7375 34.82Z" fill="white"/>
<path d="M92.3379 34.82C92.3379 36.9 91.8191 38.46 90.6519 39.76C89.6144 40.8 88.4473 41.32 86.891 41.32C85.3348 41.32 84.1676 40.8 83.5191 39.63V46H80.7957V33C80.7957 31.7 80.7957 30.4 80.666 28.97H83.0004L83.1301 30.92C84.0379 29.49 85.3348 28.71 87.1504 28.71C88.577 28.71 89.7441 29.23 90.6519 30.4C91.8191 31.44 92.3379 32.87 92.3379 34.82ZM89.6145 34.82C89.6145 33.65 89.3551 32.61 88.8363 31.96C88.3176 31.18 87.5395 30.79 86.502 30.79C85.8535 30.79 85.2051 31.05 84.6863 31.44C84.1676 31.83 83.7785 32.48 83.6488 33.13C83.5191 33.52 83.5191 33.78 83.5191 33.91V35.99C83.5191 36.9 83.7785 37.55 84.2973 38.2C84.816 38.85 85.5941 39.11 86.3723 39.11C87.4098 39.11 88.1879 38.72 88.7066 37.94C89.3551 37.16 89.6145 36.12 89.6145 34.82Z" fill="white"/>
<path d="M107.9 36.25C107.9 37.68 107.381 38.85 106.473 39.76C105.436 40.8 103.879 41.19 101.934 41.19C100.118 41.19 98.6918 40.8 97.6543 40.15L98.3027 37.94C99.4699 38.59 100.767 38.98 102.193 38.98C103.231 38.98 104.009 38.72 104.528 38.33C105.046 37.81 105.306 37.29 105.306 36.51C105.306 35.86 105.046 35.21 104.657 34.82C104.139 34.3 103.361 33.91 102.323 33.52C99.3402 32.48 97.9137 30.79 97.9137 28.71C97.9137 27.28 98.4324 26.24 99.4699 25.33C100.507 24.42 101.804 24.03 103.62 24.03C105.176 24.03 106.343 24.29 107.381 24.81L106.732 27.02C105.825 26.5 104.787 26.24 103.49 26.24C102.582 26.24 101.804 26.5 101.286 26.89C100.896 27.28 100.637 27.8 100.637 28.45C100.637 29.1 100.896 29.62 101.415 30.14C101.804 30.53 102.712 30.92 103.879 31.44C105.306 31.96 106.343 32.74 107.121 33.52C107.511 34.17 107.9 35.08 107.9 36.25Z" fill="white"/>
<path d="M116.718 30.92H113.736V36.77C113.736 38.2 114.254 38.98 115.292 38.98C115.811 38.98 116.2 38.98 116.459 38.85L116.589 40.93C116.07 41.19 115.421 41.19 114.514 41.19C113.476 41.19 112.568 40.93 112.05 40.28C111.401 39.63 111.142 38.59 111.142 37.03V30.92H109.326V28.84H111.142V26.63L113.736 25.85V28.84H116.718V30.92Z" fill="white"/>
<path d="M130.077 34.82C130.077 36.64 129.558 38.2 128.521 39.37C127.354 40.54 125.927 41.19 124.111 41.19C122.296 41.19 120.869 40.54 119.832 39.37C118.794 38.2 118.275 36.77 118.275 34.95C118.275 33.13 118.794 31.57 119.961 30.4C120.999 29.23 122.555 28.58 124.371 28.58C126.186 28.58 127.613 29.23 128.65 30.4C129.558 31.57 130.077 33 130.077 34.82ZM127.224 34.95C127.224 33.78 126.964 32.87 126.446 32.09C125.927 31.18 125.019 30.66 123.982 30.66C122.944 30.66 122.036 31.18 121.518 32.09C120.999 32.87 120.739 33.91 120.739 34.95C120.739 36.12 120.999 37.03 121.518 37.81C122.036 38.72 122.944 39.24 123.982 39.24C125.019 39.24 125.797 38.72 126.446 37.81C126.964 37.03 127.224 35.99 127.224 34.95Z" fill="white"/>
<path d="M138.765 31.1801C138.506 31.1801 138.247 31.0501 137.858 31.0501C136.95 31.0501 136.172 31.4401 135.653 32.0901C135.264 32.7401 135.004 33.5201 135.004 34.4301V40.8001H132.281V32.4801C132.281 31.0501 132.281 29.8801 132.151 28.7101H134.486L134.615 31.0501H134.745C135.004 30.2701 135.523 29.6201 136.042 29.1001C136.69 28.7101 137.339 28.4501 137.987 28.4501C138.247 28.4501 138.506 28.4501 138.636 28.4501V31.1801H138.765Z" fill="white"/>
<path d="M150.697 34.3C150.697 34.82 150.697 35.21 150.567 35.47H142.526C142.526 36.64 142.915 37.55 143.694 38.2C144.342 38.72 145.25 39.11 146.287 39.11C147.454 39.11 148.622 38.98 149.529 38.59L149.919 40.41C148.751 40.93 147.454 41.19 145.898 41.19C144.083 41.19 142.526 40.67 141.489 39.5C140.451 38.46 139.933 36.9 139.933 35.08C139.933 33.26 140.451 31.7 141.359 30.53C142.397 29.23 143.823 28.58 145.639 28.58C147.325 28.58 148.751 29.23 149.529 30.53C150.437 31.57 150.697 32.87 150.697 34.3ZM148.233 33.65C148.233 32.87 148.103 32.22 147.714 31.57C147.195 30.79 146.547 30.4 145.639 30.4C144.731 30.4 144.083 30.79 143.564 31.44C143.175 31.96 142.915 32.74 142.786 33.52H148.233V33.65Z" fill="white"/>
<path d="M58.8785 13.89C58.8785 15.32 58.4894 16.49 57.5816 17.27C56.8035 17.92 55.6363 18.31 54.0801 18.31C53.302 18.31 52.6535 18.31 52.1348 18.18V10.12C52.7832 9.98999 53.5613 9.98999 54.4691 9.98999C55.8957 9.98999 56.9332 10.25 57.7113 10.9C58.3598 11.55 58.8785 12.59 58.8785 13.89ZM57.452 13.89C57.452 12.98 57.1926 12.2 56.6738 11.68C56.1551 11.16 55.3769 10.9 54.4691 10.9C54.0801 10.9 53.691 10.9 53.4316 11.03V17.14C53.5613 17.14 53.9504 17.14 54.3394 17.14C55.3769 17.14 56.1551 16.88 56.6738 16.36C57.1926 15.84 57.452 14.93 57.452 13.89Z" fill="white"/>
<path d="M66.1406 15.1899C66.1406 16.0999 65.8813 16.8799 65.3625 17.3999C64.8438 18.0499 64.0656 18.3099 63.1578 18.3099C62.25 18.3099 61.6016 18.0499 61.0828 17.3999C60.5641 16.8799 60.3047 16.0999 60.3047 15.1899C60.3047 14.2799 60.5641 13.4999 61.0828 12.9799C61.6016 12.3299 62.3797 12.0699 63.2875 12.0699C64.1953 12.0699 64.8438 12.3299 65.3625 12.9799C65.8813 13.4999 66.1406 14.2799 66.1406 15.1899ZM64.8438 15.1899C64.8438 14.6699 64.7141 14.1499 64.4547 13.7599C64.1953 13.2399 63.8063 13.1099 63.2875 13.1099C62.7688 13.1099 62.3797 13.3699 62.1203 13.7599C61.8609 14.1499 61.7313 14.6699 61.7313 15.1899C61.7313 15.7099 61.8609 16.2299 62.1203 16.6199C62.3797 17.1399 62.7688 17.2699 63.2875 17.2699C63.8063 17.2699 64.1953 17.0099 64.4547 16.4899C64.7141 16.2299 64.8438 15.7099 64.8438 15.1899Z" fill="white"/>
<path d="M76.1266 12.2001L74.3109 18.1801H73.1438L72.3656 15.5801C72.1063 14.9301 71.9766 14.2801 71.8469 13.6301C71.7172 14.2801 71.5875 14.9301 71.3281 15.5801L70.55 18.1801H69.3828L67.4375 12.2001H68.7344L69.3828 15.0601C69.5125 15.7101 69.6422 16.3601 69.7719 17.0101C69.9016 16.4901 70.0313 15.8401 70.2906 15.0601L71.0688 12.2001H72.1063L72.8844 14.9301C73.1438 15.5801 73.2734 16.2301 73.4031 16.8801C73.5328 16.2301 73.6625 15.5801 73.7922 14.9301L74.5703 12.2001H76.1266Z" fill="white"/>
<path d="M82.8703 18.1801H81.5734V14.8001C81.5734 13.7601 81.1844 13.2401 80.4062 13.2401C80.0172 13.2401 79.7578 13.3701 79.4984 13.6301C79.2391 13.8901 79.1094 14.2801 79.1094 14.6701V18.1801H77.8125V13.8901C77.8125 13.3701 77.8125 12.8501 77.8125 12.2001H78.9797V13.1101C79.1094 12.8501 79.3688 12.5901 79.6281 12.3301C80.0172 12.0701 80.4063 11.9401 80.7953 11.9401C81.3141 11.9401 81.8328 12.0701 82.2219 12.4601C82.7406 12.8501 82.8703 13.5001 82.8703 14.4101V18.1801Z" fill="white"/>
<path d="M86.502 18.18H85.2051V9.46997H86.502V18.18Z" fill="white"/>
<path d="M94.2832 15.1899C94.2832 16.0999 94.0238 16.8799 93.5051 17.3999C92.9863 18.0499 92.2082 18.3099 91.3004 18.3099C90.3926 18.3099 89.7441 18.0499 89.2254 17.3999C88.7066 16.8799 88.4473 16.0999 88.4473 15.1899C88.4473 14.2799 88.7066 13.4999 89.2254 12.9799C89.7441 12.4599 90.5223 12.0699 91.4301 12.0699C92.3379 12.0699 92.9863 12.3299 93.5051 12.9799C94.0238 13.4999 94.2832 14.2799 94.2832 15.1899ZM92.9863 15.1899C92.9863 14.6699 92.8566 14.1499 92.5973 13.7599C92.3379 13.2399 91.9488 13.1099 91.4301 13.1099C90.9113 13.1099 90.5223 13.3699 90.2629 13.7599C90.0035 14.1499 89.8738 14.6699 89.8738 15.1899C89.8738 15.7099 90.0035 16.2299 90.2629 16.6199C90.5223 17.1399 90.9113 17.2699 91.4301 17.2699C91.9488 17.2699 92.3379 17.0099 92.5973 16.4899C92.8566 16.2299 92.9863 15.7099 92.9863 15.1899Z" fill="white"/>
<path d="M100.637 18.1799H99.4701L99.3404 17.5299C98.9514 18.0499 98.3029 18.3099 97.6545 18.3099C97.1357 18.3099 96.617 18.1799 96.3576 17.7899C96.0982 17.3999 95.8389 17.0099 95.8389 16.6199C95.8389 15.8399 96.0982 15.3199 96.7467 14.9299C97.3951 14.5399 98.1732 14.4099 99.3404 14.4099V14.2799C99.3404 13.4999 98.9514 13.1099 98.1732 13.1099C97.5248 13.1099 97.1357 13.2399 96.617 13.4999L96.3576 12.5899C96.8764 12.1999 97.5248 12.0699 98.4326 12.0699C99.9889 12.0699 100.767 12.8499 100.767 14.5399V16.7499C100.637 17.3999 100.637 17.7899 100.637 18.1799ZM99.3404 16.0999V15.1899C97.9139 15.1899 97.1357 15.5799 97.1357 16.3599C97.1357 16.6199 97.2654 16.8799 97.3951 17.0099C97.5248 17.1399 97.7842 17.2699 98.0436 17.2699C98.3029 17.2699 98.5623 17.1399 98.8217 17.0099C99.0811 16.8799 99.2107 16.6199 99.3404 16.3599C99.3404 16.3599 99.3404 16.2299 99.3404 16.0999Z" fill="white"/>
<path d="M108.16 18.18H106.992V17.27C106.603 18.05 105.955 18.31 105.047 18.31C104.269 18.31 103.75 18.05 103.231 17.53C102.713 17.01 102.583 16.23 102.583 15.32C102.583 14.41 102.842 13.63 103.361 12.98C103.88 12.46 104.528 12.2 105.177 12.2C105.955 12.2 106.474 12.46 106.863 12.98V9.59998H108.16V16.62C108.16 17.14 108.16 17.66 108.16 18.18ZM106.863 15.71V14.67C106.863 14.54 106.863 14.41 106.863 14.28C106.733 14.02 106.603 13.76 106.344 13.5C106.085 13.24 105.825 13.24 105.436 13.24C104.917 13.24 104.528 13.5 104.269 13.89C104.01 14.28 103.88 14.8 103.88 15.45C103.88 16.1 104.01 16.49 104.269 16.88C104.528 17.27 104.917 17.53 105.436 17.53C105.825 17.53 106.214 17.4 106.474 17.01C106.733 16.49 106.863 16.1 106.863 15.71Z" fill="white"/>
<path d="M119.442 15.1899C119.442 16.0999 119.183 16.8799 118.664 17.3999C118.146 18.0499 117.367 18.3099 116.46 18.3099C115.552 18.3099 114.903 18.0499 114.385 17.3999C113.866 16.8799 113.606 16.0999 113.606 15.1899C113.606 14.2799 113.866 13.4999 114.385 12.9799C114.903 12.3299 115.681 12.0699 116.589 12.0699C117.497 12.0699 118.146 12.3299 118.664 12.9799C119.183 13.4999 119.442 14.2799 119.442 15.1899ZM118.016 15.1899C118.016 14.6699 117.886 14.1499 117.627 13.7599C117.367 13.2399 116.978 13.1099 116.46 13.1099C115.941 13.1099 115.552 13.3699 115.292 13.7599C115.033 14.1499 114.903 14.6699 114.903 15.1899C114.903 15.7099 115.033 16.2299 115.292 16.6199C115.552 17.1399 115.941 17.2699 116.46 17.2699C116.978 17.2699 117.367 17.0099 117.627 16.4899C117.886 16.2299 118.016 15.7099 118.016 15.1899Z" fill="white"/>
<path d="M126.575 18.1801H125.279V14.8001C125.279 13.7601 124.889 13.2401 124.111 13.2401C123.722 13.2401 123.463 13.3701 123.204 13.6301C122.944 13.8901 122.814 14.2801 122.814 14.6701V18.1801H121.518V13.8901C121.518 13.3701 121.518 12.8501 121.518 12.2001H122.685V13.1101C122.814 12.8501 123.074 12.5901 123.333 12.3301C123.722 12.0701 124.111 11.9401 124.5 11.9401C125.019 11.9401 125.538 12.0701 125.927 12.4601C126.446 12.8501 126.575 13.5001 126.575 14.4101V18.1801Z" fill="white"/>
<path d="M135.394 13.24H133.968V16.1C133.968 16.88 134.227 17.14 134.746 17.14C135.005 17.14 135.135 17.14 135.394 17.14V18.18C135.135 18.31 134.746 18.31 134.357 18.31C133.838 18.31 133.449 18.18 133.189 17.79C132.93 17.53 132.8 16.88 132.8 16.23V13.24H131.893V12.2H132.8V11.16L134.097 10.77V12.2H135.524V13.24H135.394Z" fill="white"/>
<path d="M142.397 18.18H141.1V14.8C141.1 13.76 140.711 13.24 139.933 13.24C139.284 13.24 138.895 13.5 138.636 14.15C138.636 14.28 138.636 14.41 138.636 14.67V18.18H137.339V9.46997H138.636V13.11C139.025 12.46 139.673 12.07 140.451 12.07C140.97 12.07 141.489 12.2 141.748 12.59C142.137 12.98 142.397 13.76 142.397 14.54V18.18Z" fill="white"/>
<path d="M149.529 14.9301C149.529 15.1901 149.529 15.3201 149.529 15.5801H145.639C145.639 16.2301 145.898 16.6201 146.157 16.8801C146.546 17.1401 146.936 17.2701 147.454 17.2701C148.103 17.2701 148.621 17.1401 149.011 17.0101L149.27 17.9201C148.751 18.1801 148.103 18.3101 147.325 18.3101C146.417 18.3101 145.639 18.0501 145.12 17.5301C144.601 17.0101 144.342 16.2301 144.342 15.3201C144.342 14.4101 144.601 13.6301 145.12 13.1101C145.639 12.4601 146.287 12.2001 147.195 12.2001C148.103 12.2001 148.751 12.4601 149.14 13.1101C149.4 13.5001 149.529 14.1501 149.529 14.9301ZM148.362 14.5401C148.362 14.1501 148.232 13.7601 148.103 13.5001C147.843 13.1101 147.584 12.9801 147.065 12.9801C146.676 12.9801 146.287 13.1101 146.028 13.5001C145.768 13.7601 145.639 14.1501 145.639 14.5401H148.362Z" fill="white"/>
</svg>
