<svg width="20" height="21" viewBox="0 0 20 21" fill="none" xmlns="http://www.w3.org/2000/svg">
<path d="M3.65188 0.0150146C1.6289 0.0150146 0 1.64391 0 3.66689V16.3631C0 18.3861 1.6289 20.015 3.65188 20.015H10.5331V12.1962H8.46564V9.38126H10.5331V6.97626C10.5331 5.08676 11.7547 3.35189 14.5688 3.35189C15.7081 3.35189 16.5506 3.46127 16.5506 3.46127L16.4844 6.09002C16.4844 6.09002 15.6251 6.0819 14.6875 6.0819C13.6727 6.0819 13.51 6.54946 13.51 7.32566V9.38128H16.565L16.4319 12.1963H13.51V20.015H16.3481C18.3711 20.015 20 18.3861 20 16.3631V3.66691C20 1.64393 18.3711 0.0150346 16.3481 0.0150346H3.65186L3.65188 0.0150146Z" fill="black"/>
</svg>
