<svg width="177" height="52" viewBox="0 0 177 52" fill="none" xmlns="http://www.w3.org/2000/svg">
<path d="M169.617 0H6.52375C2.92078 0 0 2.91015 0 6.5V45.5C0 49.0898 2.92078 52 6.52375 52H169.617C173.22 52 176.141 49.0898 176.141 45.5V6.5C176.141 2.91015 173.22 0 169.617 0Z" fill="white"/>
<path d="M61.8711 13.312C61.8933 13.7888 61.818 14.2651 61.6498 14.7121C61.4816 15.159 61.224 15.5673 60.8926 15.912C60.5226 16.2949 60.0757 16.5959 59.5811 16.7953C59.0865 16.9946 58.5553 17.0879 58.0221 17.069C57.2132 17.0627 56.4241 16.8186 55.7537 16.3674C55.0833 15.9162 54.5615 15.278 54.2536 14.5326C53.9457 13.7872 53.8655 12.9678 54.0229 12.1772C54.1803 11.3866 54.5685 10.6598 55.1386 10.088C55.5134 9.70679 55.9626 9.40628 56.4586 9.20504C56.9546 9.00379 57.4867 8.90609 58.0221 8.91798C58.5737 8.91614 59.1199 9.02674 59.627 9.24298C60.0991 9.43272 60.5194 9.7312 60.8534 10.114L60.1619 10.803C59.9015 10.4943 59.5726 10.2503 59.2013 10.0901C58.8299 9.92991 58.4262 9.85798 58.0221 9.87998C57.6146 9.87798 57.2108 9.95801 56.8351 10.1153C56.4593 10.2725 56.1193 10.5037 55.8354 10.7951C55.5515 11.0864 55.3296 11.4319 55.183 11.8108C55.0363 12.1897 54.968 12.5941 54.9821 13C54.9735 13.6059 55.1453 14.2009 55.4757 14.7097C55.8061 15.2185 56.2804 15.6184 56.8386 15.859C57.3969 16.0996 58.0142 16.17 58.6126 16.0615C59.211 15.9529 59.7637 15.6702 60.2011 15.249C60.6026 14.8155 60.8341 14.2525 60.8534 13.663H58.0221V12.727H61.819C61.8538 12.92 61.8712 13.1158 61.8711 13.312ZM67.8469 10.062H64.3241V12.532H67.5338V13.468H64.3241V15.938H67.8469V16.9H63.2803V9.09998H67.8469V10.062ZM72.1265 16.9H71.1218V10.062H68.9298V9.09998H74.3707V10.062H72.1265V16.9ZM78.2066 16.9V9.09998H79.2113V16.9H78.2066ZM83.6735 16.9H82.6689V10.062H80.4769V9.09998H85.8525V10.062H83.6735V16.9ZM96.0426 15.886C95.2798 16.6417 94.2478 17.0659 93.1721 17.0659C92.0964 17.0659 91.0644 16.6417 90.3017 15.886C89.5603 15.1041 89.1472 14.0691 89.1472 12.9935C89.1472 11.9178 89.5603 10.8829 90.3017 10.101C90.6776 9.72364 91.1248 9.42416 91.6175 9.2198C92.1101 9.01543 92.6385 8.91022 93.1721 8.91022C93.7057 8.91022 94.2341 9.01543 94.7268 9.2198C95.2194 9.42416 95.6666 9.72364 96.0426 10.101C96.7869 10.8814 97.2019 11.9169 97.2019 12.9935C97.2019 14.0701 96.7869 15.1055 96.0426 15.886ZM91.0454 15.236C91.6102 15.7964 92.3749 16.1111 93.1721 16.1111C93.9693 16.1111 94.734 15.7964 95.2988 15.236C95.8563 14.6237 96.1651 13.8266 96.1651 13C96.1651 12.1733 95.8563 11.3763 95.2988 10.764C94.734 10.2035 93.9693 9.88885 93.1721 9.88885C92.3749 9.88885 91.6102 10.2035 91.0454 10.764C90.4879 11.3763 90.1791 12.1733 90.1791 13C90.1791 13.8266 90.4879 14.6237 91.0454 15.236ZM98.6129 16.9V9.09998H99.8394L103.649 15.171V9.09998H104.654V16.9H103.61L99.6306 10.543V16.9H98.6129Z" fill="#1D1937" stroke="#1D1937" stroke-width="0.2" stroke-miterlimit="10"/>
<path d="M88.9058 28.275C87.8102 28.2801 86.7407 28.6085 85.8322 29.2187C84.9237 29.829 84.217 30.6936 83.8013 31.7036C83.3856 32.7136 83.2796 33.8237 83.4965 34.8937C83.7134 35.9638 84.2435 36.9458 85.0201 37.7159C85.7966 38.486 86.7847 39.0096 87.8596 39.2207C88.9346 39.4318 90.0482 39.3208 91.0599 38.9019C92.0717 38.483 92.9362 37.7748 93.5443 36.8668C94.1525 35.9588 94.4771 34.8916 94.4771 33.8C94.4877 33.0693 94.3507 32.344 94.0741 31.6672C93.7976 30.9903 93.3872 30.3759 92.8673 29.8604C92.3475 29.3449 91.7289 28.9388 91.0483 28.6665C90.3677 28.3941 89.6391 28.261 88.9058 28.275ZM88.9058 37.154C88.232 37.201 87.5596 37.0449 86.976 36.706C86.3924 36.3672 85.9247 35.8612 85.6335 35.254C85.3423 34.6467 85.2413 33.9662 85.3434 33.301C85.4455 32.6358 85.7462 32.0165 86.2062 31.5238C86.6663 31.031 87.2645 30.6875 87.923 30.538C88.5816 30.3885 89.27 30.4398 89.8989 30.6853C90.5278 30.9308 91.0681 31.3591 91.4494 31.9146C91.8307 32.4701 92.0355 33.127 92.0372 33.8C92.0582 34.2264 91.9933 34.6527 91.8463 35.0538C91.6994 35.4548 91.4733 35.8224 91.1815 36.135C90.8896 36.4476 90.5379 36.6988 90.1471 36.8738C89.7562 37.0488 89.3342 37.1441 88.9058 37.154ZM76.7586 28.275C75.6624 28.2776 74.5916 28.6038 73.6814 29.2125C72.7712 29.8211 72.0625 30.6849 71.6448 31.6947C71.2271 32.7045 71.1191 33.8149 71.3346 34.8858C71.55 35.9567 72.0792 36.94 72.8552 37.7113C73.6312 38.4827 74.6193 39.0076 75.6946 39.2198C76.7699 39.4319 77.8842 39.3217 78.8967 38.9032C79.9092 38.4846 80.7744 37.7765 81.3832 36.8682C81.9919 35.9599 82.3168 34.8922 82.3168 33.8C82.3274 33.0693 82.1904 32.344 81.9139 31.6672C81.6373 30.9903 81.2269 30.3759 80.7071 29.8604C80.1872 29.3449 79.5686 28.9388 78.888 28.6665C78.2074 28.3941 77.4788 28.261 76.7455 28.275H76.7586ZM76.7586 37.154C76.0844 37.2036 75.4109 37.0498 74.8258 36.7127C74.2406 36.3756 73.7708 35.8708 73.4776 35.2639C73.1844 34.6571 73.0813 33.9763 73.1819 33.3103C73.2824 32.6443 73.5818 32.0239 74.0412 31.5298C74.5006 31.0357 75.0986 30.6909 75.7574 30.5402C76.4162 30.3895 77.1053 30.4399 77.735 30.6848C78.3647 30.9298 78.9057 31.3579 79.2878 31.9135C79.6698 32.4692 79.8751 33.1265 79.8769 33.8C79.8979 34.2264 79.833 34.6527 79.6861 35.0538C79.5391 35.4548 79.313 35.8224 79.0212 36.135C78.7293 36.4476 78.3776 36.6988 77.9868 36.8738C77.596 37.0488 77.1739 37.1441 76.7455 37.154H76.7586ZM62.2889 29.978V32.318H67.9254C67.837 33.4202 67.3772 34.4601 66.6207 35.269C66.0567 35.8413 65.3788 36.2897 64.6305 36.5852C63.8822 36.8807 63.0801 37.0169 62.2758 36.985C60.6148 36.985 59.0219 36.3276 57.8474 35.1574C56.6729 33.9871 56.013 32.4 56.013 30.745C56.013 29.0901 56.6729 27.5029 57.8474 26.3327C59.0219 25.1624 60.6148 24.505 62.2758 24.505C63.8648 24.4792 65.3991 25.0823 66.5424 26.182L68.1994 24.531C67.4276 23.7523 66.5068 23.136 65.4915 22.7184C64.4763 22.3008 63.3872 22.0905 62.2889 22.1C61.129 22.055 59.9719 22.2438 58.8869 22.6551C57.802 23.0663 56.8115 23.6916 55.9749 24.4933C55.1383 25.2951 54.4727 26.2569 54.0181 27.3211C53.5634 28.3852 53.3291 29.5299 53.3291 30.6865C53.3291 31.8431 53.5634 32.9878 54.0181 34.0519C54.4727 35.1161 55.1383 36.0779 55.9749 36.8797C56.8115 37.6815 57.802 38.3067 58.8869 38.7179C59.9719 39.1292 61.129 39.318 62.2889 39.273C63.4057 39.3233 64.5203 39.1347 65.5579 38.7198C66.5954 38.305 67.5317 37.6735 68.3038 36.868C69.6707 35.3716 70.4006 33.4045 70.3392 31.382C70.3434 30.8893 70.2997 30.3973 70.2087 29.913L62.2889 29.978ZM121.407 31.798C121.067 30.8006 120.431 29.9296 119.582 29.3005C118.734 28.6714 117.714 28.3138 116.658 28.275C115.944 28.2736 115.238 28.4181 114.582 28.6995C113.927 28.9809 113.336 29.3933 112.847 29.9111C112.358 30.4289 111.981 31.0412 111.738 31.7101C111.496 32.379 111.394 33.0903 111.439 33.8C111.423 34.5266 111.554 35.2489 111.825 35.9238C112.095 36.5987 112.5 37.2123 113.014 37.7281C113.528 38.2438 114.141 38.651 114.816 38.9254C115.492 39.1997 116.216 39.3357 116.945 39.325C117.858 39.3299 118.757 39.1092 119.563 38.6827C120.369 38.2562 121.057 37.6371 121.564 36.881L119.672 35.581C119.389 36.05 118.99 36.438 118.512 36.7069C118.034 36.9758 117.494 37.1164 116.945 37.115C116.38 37.1365 115.821 36.988 115.342 36.6889C114.862 36.3898 114.484 35.954 114.257 35.438L121.681 32.383L121.407 31.798ZM113.84 33.644C113.813 33.2419 113.867 32.8386 113.999 32.4577C114.131 32.0768 114.338 31.7259 114.608 31.4257C114.878 31.1254 115.205 30.8818 115.57 30.7092C115.936 30.5365 116.332 30.4382 116.736 30.42C117.157 30.3924 117.577 30.4885 117.943 30.6965C118.31 30.9045 118.607 31.2152 118.798 31.59L113.84 33.644ZM107.812 39H110.252V22.75H107.812V39ZM103.819 29.51H103.728C103.36 29.1004 102.91 28.7728 102.406 28.5488C101.902 28.3247 101.357 28.2093 100.805 28.21C99.3793 28.2789 98.0347 28.8918 97.05 29.9216C96.0653 30.9514 95.5161 32.3192 95.5161 33.7415C95.5161 35.1638 96.0653 36.5316 97.05 37.5614C98.0347 38.5913 99.3793 39.2041 100.805 39.273C101.358 39.2823 101.906 39.1707 102.411 38.9461C102.916 38.7215 103.366 38.3893 103.728 37.973H103.806V38.766C103.806 40.885 102.671 42.016 100.844 42.016C100.236 42.0018 99.6455 41.8076 99.1483 41.458C98.651 41.1084 98.2694 40.6193 98.0521 40.053L95.9253 40.937C96.3257 41.9073 97.0078 42.7363 97.8842 43.3176C98.7606 43.899 99.7914 44.2063 100.844 44.2C103.702 44.2 106.063 42.523 106.063 38.441V28.6H103.819V29.51ZM101.027 37.154C100.185 37.0801 99.402 36.6948 98.8314 36.0739C98.2608 35.4531 97.9443 34.6418 97.9443 33.8C97.9443 32.9582 98.2608 32.1469 98.8314 31.5261C99.402 30.9053 100.185 30.5199 101.027 30.446C101.444 30.4673 101.853 30.5717 102.229 30.7529C102.605 30.934 102.941 31.1884 103.217 31.5009C103.493 31.8135 103.704 32.1779 103.836 32.5728C103.969 32.9676 104.021 33.3849 103.989 33.8C104.024 34.2169 103.975 34.6367 103.843 35.0339C103.711 35.4311 103.5 35.7976 103.221 36.1111C102.943 36.4247 102.604 36.6787 102.225 36.858C101.845 37.0372 101.433 37.1379 101.014 37.154H101.027ZM132.837 22.75H127.004V39H129.444V32.838H132.85C133.545 32.8878 134.243 32.7943 134.901 32.5634C135.558 32.3324 136.161 31.969 136.671 31.4957C137.182 31.0225 137.589 30.4496 137.867 29.8127C138.145 29.1758 138.289 28.4886 138.289 27.794C138.289 27.0994 138.145 26.4122 137.867 25.7753C137.589 25.1384 137.182 24.5655 136.671 24.0923C136.161 23.619 135.558 23.2556 134.901 23.0247C134.243 22.7937 133.545 22.7002 132.85 22.75H132.837ZM132.837 30.55H129.431V25.012H132.889C133.631 25.012 134.343 25.3058 134.868 25.8287C135.393 26.3517 135.688 27.061 135.688 27.8005C135.688 28.5401 135.393 29.2493 134.868 29.7723C134.343 30.2952 133.631 30.589 132.889 30.589L132.837 30.55ZM147.88 28.21C146.992 28.1571 146.108 28.3639 145.336 28.805C144.564 29.2462 143.938 29.9024 143.536 30.693L145.702 31.59C145.915 31.1979 146.238 30.876 146.632 30.6637C147.026 30.4513 147.473 30.3576 147.92 30.394C148.229 30.358 148.543 30.3837 148.843 30.4698C149.142 30.5559 149.422 30.7006 149.665 30.8954C149.908 31.0903 150.109 31.3313 150.258 31.6046C150.406 31.8779 150.498 32.1778 150.529 32.487V32.656C149.745 32.2426 148.872 32.0283 147.985 32.032C145.649 32.032 143.288 33.332 143.288 35.685C143.311 36.1867 143.435 36.6787 143.652 37.132C143.869 37.5852 144.175 37.9904 144.552 38.3237C144.929 38.657 145.37 38.9116 145.847 39.0724C146.325 39.2332 146.83 39.297 147.332 39.26C147.947 39.304 148.562 39.1823 149.113 38.9078C149.664 38.6333 150.131 38.2161 150.464 37.7H150.542V39H152.891V32.747C152.891 29.9 150.725 28.249 147.946 28.249L147.88 28.21ZM147.58 37.115C146.785 37.115 145.675 36.712 145.675 35.737C145.675 34.437 147.059 34.008 148.285 34.008C149.06 33.989 149.826 34.1775 150.503 34.554C150.421 35.2578 150.087 35.9086 149.562 36.3863C149.037 36.8641 148.357 37.1367 147.646 37.154L147.58 37.115ZM161.45 28.6L158.658 35.646H158.579L155.683 28.6H153.073L157.418 38.454L154.939 43.927H157.483L164.164 28.6H161.45ZM139.517 39H141.957V22.75H139.517V39Z" fill="#1D1937"/>
<path d="M13.6215 9.802C13.1962 10.3104 12.9816 10.9613 13.0213 11.622V40.378C12.9816 41.0387 13.1962 41.6896 13.6215 42.198L13.7128 42.289L29.8786 26.195V25.818L13.7128 9.711L13.6215 9.802Z" fill="url(#paint0_linear)"/>
<path d="M35.2284 31.564L29.8789 26.195V25.818L35.2284 20.436L35.3458 20.501L41.7521 24.128C43.5788 25.155 43.5788 26.845 41.7521 27.885L35.3719 31.499L35.2284 31.564Z" fill="url(#paint1_linear)"/>
<path d="M35.3843 31.486L29.8783 26L13.6211 42.198C13.9934 42.5241 14.4684 42.7104 14.9639 42.7246C15.4594 42.7389 15.9444 42.5802 16.335 42.276L35.3974 31.486" fill="url(#paint2_linear)"/>
<path d="M35.3847 20.514L16.3223 9.72398C15.9317 9.4198 15.4468 9.26111 14.9512 9.27536C14.4557 9.2896 13.9807 9.47587 13.6084 9.80198L29.8786 26L35.3847 20.514Z" fill="url(#paint3_linear)"/>
<path opacity="0.2" d="M35.2278 31.369L16.3219 42.094C15.9452 42.3746 15.4875 42.5263 15.0172 42.5263C14.5468 42.5263 14.0891 42.3746 13.7124 42.094L13.6211 42.185L13.7124 42.276C14.0883 42.5586 14.5463 42.7115 15.0172 42.7115C15.488 42.7115 15.9461 42.5586 16.3219 42.276L35.3843 31.486L35.2278 31.369Z" fill="white"/>
<path opacity="0.12" d="M13.6215 42.016C13.1962 41.5076 12.9816 40.8567 13.0213 40.196V40.391C12.9816 41.0517 13.1962 41.7026 13.6215 42.211L13.7128 42.12L13.6215 42.016ZM41.7519 27.69L35.2281 31.369L35.3456 31.486L41.7519 27.872C42.1154 27.7019 42.4274 27.4392 42.6565 27.1105C42.8856 26.7819 43.0236 26.3988 43.0566 26C42.9832 26.3623 42.8275 26.7031 42.6013 26.996C42.3751 27.289 42.0845 27.5264 41.7519 27.69Z" fill="white"/>
<path opacity="0.25" d="M16.3229 9.90598L41.7524 24.31C42.0851 24.4736 42.3757 24.711 42.6019 25.004C42.828 25.2969 42.9838 25.6377 43.0572 26C43.0241 25.6012 42.8861 25.2181 42.657 24.8894C42.428 24.5608 42.1159 24.2981 41.7524 24.128L16.3229 9.72398C14.4962 8.69698 13.0088 9.55498 13.0088 11.635V11.83C13.0479 9.73698 14.5093 8.87898 16.3229 9.90598Z" fill="#1D1937"/>
<defs>
<linearGradient id="paint0_linear" x1="28.4434" y1="11.323" x2="6.62957" y2="33.2166" gradientUnits="userSpaceOnUse">
<stop stop-color="#00A0FF"/>
<stop offset="0.01" stop-color="#00A1FF"/>
<stop offset="0.26" stop-color="#00BEFF"/>
<stop offset="0.51" stop-color="#00D2FF"/>
<stop offset="0.76" stop-color="#00DFFF"/>
<stop offset="1" stop-color="#00E3FF"/>
</linearGradient>
<linearGradient id="paint1_linear" x1="44.1398" y1="26" x2="12.5779" y2="26" gradientUnits="userSpaceOnUse">
<stop stop-color="#FFE000"/>
<stop offset="0.41" stop-color="#FFBD00"/>
<stop offset="0.78" stop-color="#FFA500"/>
<stop offset="1" stop-color="#FF9C00"/>
</linearGradient>
<linearGradient id="paint2_linear" x1="32.3965" y1="28.99" x2="2.8086" y2="58.6729" gradientUnits="userSpaceOnUse">
<stop stop-color="#FF3A44"/>
<stop offset="1" stop-color="#C31162"/>
</linearGradient>
<linearGradient id="paint3_linear" x1="9.52453" y1="0.233978" x2="22.7324" y2="13.4901" gradientUnits="userSpaceOnUse">
<stop stop-color="#32A071"/>
<stop offset="0.07" stop-color="#2DA771"/>
<stop offset="0.48" stop-color="#15CF74"/>
<stop offset="0.8" stop-color="#06E775"/>
<stop offset="1" stop-color="#00F076"/>
</linearGradient>
</defs>
</svg>
