<svg width="166" height="53" viewBox="0 0 166 53" fill="none" xmlns="http://www.w3.org/2000/svg">
<path d="M159.852 0.5H6.14815C2.75262 0.5 0 3.41015 0 7V46C0 49.5898 2.75262 52.5 6.14815 52.5H159.852C163.247 52.5 166 49.5898 166 46V7C166 3.41015 163.247 0.5 159.852 0.5Z" fill="#1D1937"/>
<path d="M58.3093 13.8122C58.3302 14.289 58.2592 14.7653 58.1007 15.2123C57.9422 15.6592 57.6994 16.0674 57.3871 16.4122C57.0384 16.7951 56.6172 17.0961 56.1511 17.2955C55.685 17.4948 55.1844 17.5881 54.6819 17.5692C53.9195 17.5628 53.1758 17.3188 52.544 16.8676C51.9123 16.4164 51.4205 15.7781 51.1303 15.0327C50.8402 14.2874 50.7646 13.468 50.9129 12.6774C51.0613 11.8867 51.4271 11.16 51.9644 10.5882C52.3176 10.207 52.741 9.90647 53.2084 9.70522C53.6758 9.50397 54.1773 9.40627 54.6819 9.41816C55.2017 9.41633 55.7164 9.52693 56.1943 9.74316C56.6393 9.9329 57.0354 10.2314 57.3502 10.6142L56.6985 11.3032C56.4531 10.9945 56.1431 10.7505 55.7931 10.5903C55.4431 10.4301 55.0627 10.3582 54.6819 10.3802C54.2978 10.3782 53.9173 10.4582 53.5632 10.6154C53.2091 10.7727 52.8886 11.0039 52.6211 11.2953C52.3535 11.5866 52.1444 11.9321 52.0062 12.311C51.868 12.6899 51.8036 13.0943 51.8169 13.5002C51.8088 14.1061 51.9707 14.7011 52.2821 15.2099C52.5935 15.7187 53.0404 16.1186 53.5665 16.3592C54.0927 16.5998 54.6744 16.6702 55.2384 16.5616C55.8023 16.4531 56.3232 16.1704 56.7354 15.7492C57.1137 15.3157 57.332 14.7527 57.3502 14.1632H54.6819V13.2272H58.2601C58.2929 13.4202 58.3094 13.616 58.3093 13.8122ZM63.941 10.5622H60.621V13.0322H63.6459V13.9682H60.621V16.4382H63.941V17.4002H59.6373V9.60016H63.941V10.5622ZM67.9742 17.4002H67.0274V10.5622H64.9616V9.60016H70.0891V10.5622H67.9742V17.4002ZM73.7043 17.4002V9.60016H74.6511V17.4002H73.7043ZM78.8564 17.4002H77.9096V10.5622H75.8438V9.60016H80.9099V10.5622H78.8564V17.4002ZM90.5133 16.3862C89.7945 17.1419 88.8219 17.5661 87.8081 17.5661C86.7943 17.5661 85.8218 17.1419 85.1029 16.3862C84.4042 15.6042 84.015 14.5693 84.015 13.4937C84.015 12.418 84.4042 11.3831 85.1029 10.6012C85.4572 10.2238 85.8787 9.92435 86.343 9.71998C86.8072 9.51561 87.3052 9.4104 87.8081 9.4104C88.311 9.4104 88.809 9.51561 89.2733 9.71998C89.7375 9.92435 90.159 10.2238 90.5133 10.6012C91.2148 11.3816 91.6059 12.4171 91.6059 13.4937C91.6059 14.5703 91.2148 15.6057 90.5133 16.3862ZM85.8038 15.7362C86.3362 16.2966 87.0568 16.6113 87.8081 16.6113C88.5594 16.6113 89.2801 16.2966 89.8124 15.7362C90.3378 15.1239 90.6288 14.3268 90.6288 13.5002C90.6288 12.6735 90.3378 11.8764 89.8124 11.2642C89.2801 10.7037 88.5594 10.389 87.8081 10.389C87.0568 10.389 86.3362 10.7037 85.8038 11.2642C85.2785 11.8764 84.9875 12.6735 84.9875 13.5002C84.9875 14.3268 85.2785 15.1239 85.8038 15.7362ZM92.9357 17.4002V9.60016H94.0915L97.682 15.6712V9.60016H98.6289V17.4002H97.6452L93.8948 11.0432V17.4002H92.9357Z" fill="white" stroke="white" stroke-width="0.2" stroke-miterlimit="10"/>
<path d="M83.7872 28.775C82.7546 28.7801 81.7467 29.1085 80.8905 29.7187C80.0344 30.329 79.3684 31.1936 78.9766 32.2036C78.5848 33.2136 78.4849 34.3237 78.6893 35.3937C78.8937 36.4638 79.3933 37.4458 80.1252 38.2159C80.857 38.986 81.7882 39.5096 82.8013 39.7207C83.8143 39.9318 84.8638 39.8208 85.8173 39.4019C86.7708 38.983 87.5855 38.2748 88.1586 37.3668C88.7318 36.4588 89.0377 35.3916 89.0377 34.3C89.0477 33.5693 88.9186 32.844 88.6579 32.1672C88.3973 31.4903 88.0105 30.8759 87.5206 30.3604C87.0307 29.8449 86.4477 29.4388 85.8063 29.1665C85.1649 28.8941 84.4782 28.761 83.7872 28.775ZM83.7872 37.654C83.1522 37.701 82.5185 37.5449 81.9685 37.206C81.4185 36.8672 80.9777 36.3612 80.7033 35.754C80.4289 35.1467 80.3336 34.4662 80.4299 33.801C80.5261 33.1358 80.8095 32.5165 81.243 32.0238C81.6766 31.531 82.2403 31.1875 82.861 31.038C83.4816 30.8885 84.1305 30.9398 84.7231 31.1853C85.3158 31.4308 85.825 31.8591 86.1843 32.4146C86.5437 32.9701 86.7367 33.627 86.7383 34.3C86.7581 34.7264 86.6969 35.1527 86.5584 35.5538C86.4199 35.9548 86.2069 36.3224 85.9318 36.635C85.6568 36.9476 85.3253 37.1988 84.957 37.3738C84.5886 37.5488 84.1909 37.6441 83.7872 37.654ZM72.3393 28.775C71.3063 28.7776 70.2971 29.1038 69.4393 29.7125C68.5815 30.3211 67.9136 31.1849 67.52 32.1947C67.1263 33.2045 67.0246 34.3149 67.2276 35.3858C67.4306 36.4567 67.9293 37.44 68.6607 38.2113C69.392 38.9827 70.3232 39.5076 71.3366 39.7198C72.35 39.9319 73.4001 39.8217 74.3543 39.4032C75.3085 38.9846 76.124 38.2765 76.6977 37.3682C77.2714 36.4599 77.5775 35.3922 77.5775 34.3C77.5876 33.5693 77.4584 32.844 77.1978 32.1672C76.9372 31.4903 76.5504 30.8759 76.0605 30.3604C75.5706 29.8449 74.9876 29.4388 74.3462 29.1665C73.7048 28.8941 73.0181 28.761 72.327 28.775H72.3393ZM72.3393 37.654C71.704 37.7036 71.0693 37.5498 70.5178 37.2127C69.9663 36.8756 69.5236 36.3708 69.2472 35.7639C68.9709 35.1571 68.8738 34.4763 68.9685 33.8103C69.0633 33.1443 69.3455 32.5239 69.7784 32.0298C70.2113 31.5357 70.7749 31.1909 71.3958 31.0402C72.0167 30.8895 72.6661 30.9399 73.2595 31.1848C73.8529 31.4298 74.3629 31.8579 74.7229 32.4135C75.0829 32.9692 75.2764 33.6265 75.2781 34.3C75.2979 34.7264 75.2368 35.1527 75.0983 35.5538C74.9598 35.9548 74.7467 36.3224 74.4717 36.635C74.1966 36.9476 73.8652 37.1988 73.4968 37.3738C73.1285 37.5488 72.7307 37.6441 72.327 37.654H72.3393ZM58.7027 30.478V32.818H64.0147C63.9314 33.9202 63.4981 34.9601 62.7851 35.769C62.2536 36.3413 61.6148 36.7897 60.9096 37.0852C60.2043 37.3807 59.4484 37.5169 58.6904 37.485C57.1251 37.485 55.6238 36.8276 54.5169 35.6574C53.41 34.4871 52.7882 32.9 52.7882 31.245C52.7882 29.5901 53.41 28.0029 54.5169 26.8327C55.6238 25.6624 57.1251 25.005 58.6904 25.005C60.1879 24.9792 61.6339 25.5823 62.7113 26.682L64.2729 25.031C63.5456 24.2523 62.6778 23.636 61.721 23.2184C60.7642 22.8008 59.7378 22.5905 58.7027 22.6C57.6096 22.555 56.5191 22.7438 55.4966 23.1551C54.4741 23.5663 53.5407 24.1916 52.7522 24.9933C51.9638 25.7951 51.3365 26.7569 50.9081 27.8211C50.4796 28.8852 50.2588 30.0299 50.2588 31.1865C50.2588 32.3431 50.4796 33.4878 50.9081 34.5519C51.3365 35.6161 51.9638 36.5779 52.7522 37.3797C53.5407 38.1815 54.4741 38.8067 55.4966 39.2179C56.5191 39.6292 57.6096 39.818 58.7027 39.773C59.7552 39.8233 60.8057 39.6347 61.7835 39.2198C62.7613 38.805 63.6437 38.1735 64.3713 37.368C65.6596 35.8716 66.3474 33.9045 66.2895 31.882C66.2935 31.3893 66.2523 30.8973 66.1666 30.413L58.7027 30.478ZM114.417 32.298C114.097 31.3006 113.497 30.4296 112.698 29.8005C111.898 29.1714 110.937 28.8138 109.941 28.775C109.269 28.7736 108.603 28.9181 107.985 29.1995C107.368 29.4809 106.811 29.8933 106.35 30.4111C105.889 30.9289 105.534 31.5412 105.305 32.2101C105.077 32.879 104.981 33.5903 105.023 34.3C105.008 35.0266 105.132 35.7489 105.387 36.4238C105.642 37.0987 106.023 37.7123 106.507 38.2281C106.991 38.7438 107.569 39.151 108.206 39.4254C108.842 39.6997 109.525 39.8357 110.212 39.825C111.072 39.8299 111.92 39.6092 112.68 39.1827C113.439 38.7562 114.087 38.1371 114.565 37.381L112.782 36.081C112.516 36.55 112.139 36.938 111.689 37.2069C111.238 37.4758 110.729 37.6164 110.212 37.615C109.679 37.6365 109.153 37.488 108.701 37.1889C108.249 36.8898 107.893 36.454 107.679 35.938L114.675 32.883L114.417 32.298ZM107.285 34.144C107.26 33.7419 107.312 33.3386 107.436 32.9577C107.56 32.5768 107.755 32.2259 108.01 31.9257C108.264 31.6254 108.572 31.3818 108.917 31.2092C109.261 31.0365 109.634 30.9382 110.015 30.92C110.412 30.8924 110.807 30.9885 111.153 31.1965C111.498 31.4045 111.778 31.7152 111.958 32.09L107.285 34.144ZM101.605 39.5H103.904V23.25H101.605V39.5ZM97.8418 30.01H97.7558C97.4092 29.6004 96.9847 29.2728 96.51 29.0488C96.0353 28.8247 95.5212 28.7093 95.0014 28.71C93.6576 28.7789 92.3905 29.3918 91.4625 30.4216C90.5345 31.4514 90.0169 32.8192 90.0169 34.2415C90.0169 35.6638 90.5345 37.0316 91.4625 38.0614C92.3905 39.0913 93.6576 39.7041 95.0014 39.773C95.5225 39.7823 96.0391 39.6707 96.515 39.4461C96.9909 39.2215 97.4144 38.8893 97.7558 38.473H97.8295V39.266C97.8295 41.385 96.7598 42.516 95.0383 42.516C94.4649 42.5018 93.9085 42.3076 93.4399 41.958C92.9713 41.6084 92.6117 41.1193 92.4069 40.553L90.4026 41.437C90.7799 42.4073 91.4227 43.2363 92.2487 43.8176C93.0746 44.399 94.046 44.7063 95.0383 44.7C97.7312 44.7 99.9568 43.023 99.9568 38.941V29.1H97.8418V30.01ZM95.2104 37.654C94.4173 37.5801 93.679 37.1948 93.1413 36.5739C92.6035 35.9531 92.3053 35.1418 92.3053 34.3C92.3053 33.4582 92.6035 32.6469 93.1413 32.0261C93.679 31.4053 94.4173 31.0199 95.2104 30.946C95.6037 30.9673 95.9889 31.0717 96.3435 31.2529C96.698 31.434 97.0147 31.6884 97.2748 32.0009C97.5349 32.3135 97.7332 32.6779 97.8581 33.0728C97.9829 33.4676 98.0317 33.8849 98.0017 34.3C98.0352 34.7169 97.9885 35.1367 97.8642 35.5339C97.7399 35.9311 97.5407 36.2976 97.2786 36.6111C97.0166 36.9247 96.6971 37.1787 96.3395 37.358C95.9819 37.5372 95.5936 37.6379 95.1981 37.654H95.2104ZM125.189 23.25H119.692V39.5H121.992V33.338H125.201C125.856 33.3878 126.514 33.2943 127.134 33.0634C127.754 32.8324 128.322 32.469 128.803 31.9957C129.284 31.5225 129.667 30.9496 129.929 30.3127C130.192 29.6758 130.327 28.9886 130.327 28.294C130.327 27.5994 130.192 26.9122 129.929 26.2753C129.667 25.6384 129.284 25.0655 128.803 24.5923C128.322 24.119 127.754 23.7556 127.134 23.5247C126.514 23.2937 125.856 23.2002 125.201 23.25H125.189ZM125.189 31.05H121.979V25.512H125.238C125.938 25.512 126.608 25.8058 127.103 26.3287C127.598 26.8517 127.876 27.5609 127.876 28.3005C127.876 29.0401 127.598 29.7493 127.103 30.2723C126.608 30.7952 125.938 31.089 125.238 31.089L125.189 31.05ZM139.366 28.71C138.529 28.6571 137.696 28.8639 136.968 29.305C136.241 29.7462 135.651 30.4024 135.272 31.193L137.313 32.09C137.514 31.6979 137.819 31.376 138.19 31.1637C138.561 30.9513 138.983 30.8576 139.403 30.894C139.695 30.858 139.991 30.8837 140.273 30.9698C140.556 31.0559 140.819 31.2006 141.048 31.3954C141.277 31.5903 141.467 31.8313 141.607 32.1046C141.747 32.3779 141.834 32.6778 141.863 32.987V33.156C141.124 32.7426 140.3 32.5283 139.465 32.532C137.264 32.532 135.038 33.832 135.038 36.185C135.06 36.6867 135.177 37.1787 135.381 37.632C135.586 38.0852 135.874 38.4904 136.23 38.8237C136.585 39.157 137 39.4116 137.45 39.5724C137.9 39.7332 138.376 39.797 138.85 39.76C139.429 39.804 140.009 39.6823 140.528 39.4078C141.047 39.1333 141.487 38.7161 141.801 38.2H141.875V39.5H144.088V33.247C144.088 30.4 142.047 28.749 139.428 28.749L139.366 28.71ZM139.084 37.615C138.334 37.615 137.288 37.212 137.288 36.237C137.288 34.937 138.592 34.508 139.748 34.508C140.478 34.4889 141.2 34.6775 141.838 35.054C141.761 35.7578 141.446 36.4086 140.951 36.8863C140.457 37.3641 139.815 37.6367 139.145 37.654L139.084 37.615ZM152.155 29.1L149.523 36.146H149.449L146.72 29.1H144.26L148.355 38.954L146.019 44.427H148.417L154.712 29.1H152.155ZM131.485 39.5H133.784V23.25H131.485V39.5Z" fill="white"/>
<path d="M12.8366 10.3019C12.4359 10.8104 12.2336 11.4613 12.271 12.1219V40.8779C12.2336 41.5386 12.4359 42.1895 12.8366 42.6979L12.9227 42.7889L28.1578 26.6949V26.3179L12.9227 10.2109L12.8366 10.3019Z" fill="url(#paint0_linear)"/>
<path d="M33.1997 32.0643L28.1582 26.6953V26.3183L33.1997 20.9363L33.3104 21.0013L39.3478 24.6283C41.0693 25.6553 41.0693 27.3453 39.3478 28.3853L33.3349 31.9993L33.1997 32.0643Z" fill="url(#paint1_linear)"/>
<path d="M33.3481 31.986L28.1591 26.5L12.8379 42.698C13.1888 43.0241 13.6364 43.2104 14.1034 43.2246C14.5704 43.2389 15.0274 43.0802 15.3955 42.776L33.3604 31.986" fill="url(#paint2_linear)"/>
<path d="M33.3477 21.0139L15.3828 10.2239C15.0147 9.91973 14.5577 9.76105 14.0907 9.7753C13.6237 9.78954 13.1761 9.97581 12.8252 10.3019L28.1587 26.4999L33.3477 21.0139Z" fill="url(#paint3_linear)"/>
<path opacity="0.2" d="M33.2006 31.8689L15.3832 42.5939C15.0282 42.8745 14.5969 43.0261 14.1536 43.0261C13.7103 43.0261 13.279 42.8745 12.924 42.5939L12.8379 42.6849L12.924 42.7759C13.2782 43.0585 13.7098 43.2114 14.1536 43.2114C14.5974 43.2114 15.029 43.0585 15.3832 42.7759L33.3481 31.9859L33.2006 31.8689Z" fill="#1D1937"/>
<path opacity="0.12" d="M12.8366 42.516C12.4359 42.0076 12.2336 41.3567 12.271 40.696V40.891C12.2336 41.5517 12.4359 42.2026 12.8366 42.711L12.9227 42.62L12.8366 42.516ZM39.3475 28.19L33.1993 31.869L33.31 31.986L39.3475 28.372C39.69 28.2019 39.9841 27.9392 40.2 27.6105C40.4159 27.2819 40.5459 26.8988 40.5771 26.5C40.5079 26.8623 40.3611 27.2031 40.148 27.496C39.9348 27.789 39.661 28.0264 39.3475 28.19Z" fill="#1D1937"/>
<path opacity="0.25" d="M15.383 10.4062L39.3485 24.8102C39.662 24.9738 39.9359 25.2112 40.149 25.5041C40.3622 25.7971 40.509 26.1378 40.5781 26.5002C40.547 26.1014 40.4169 25.7183 40.201 25.3896C39.9851 25.061 39.6911 24.7983 39.3485 24.6282L15.383 10.2242C13.6615 9.19716 12.2598 10.0552 12.2598 12.1352V12.3302C12.2967 10.2372 13.6738 9.37916 15.383 10.4062Z" fill="white"/>
<defs>
<linearGradient id="paint0_linear" x1="26.8052" y1="11.8229" x2="5.02497" y2="32.4242" gradientUnits="userSpaceOnUse">
<stop stop-color="#00A0FF"/>
<stop offset="0.01" stop-color="#00A1FF"/>
<stop offset="0.26" stop-color="#00BEFF"/>
<stop offset="0.51" stop-color="#00D2FF"/>
<stop offset="0.76" stop-color="#00DFFF"/>
<stop offset="1" stop-color="#00E3FF"/>
</linearGradient>
<linearGradient id="paint1_linear" x1="41.5981" y1="26.5003" x2="11.8533" y2="26.5003" gradientUnits="userSpaceOnUse">
<stop stop-color="#FFE000"/>
<stop offset="0.41" stop-color="#FFBD00"/>
<stop offset="0.78" stop-color="#FFA500"/>
<stop offset="1" stop-color="#FF9C00"/>
</linearGradient>
<linearGradient id="paint2_linear" x1="30.5323" y1="29.49" x2="0.990743" y2="57.4201" gradientUnits="userSpaceOnUse">
<stop stop-color="#FF3A44"/>
<stop offset="1" stop-color="#C31162"/>
</linearGradient>
<linearGradient id="paint3_linear" x1="8.97645" y1="0.733916" x2="22.164" y2="13.2076" gradientUnits="userSpaceOnUse">
<stop stop-color="#32A071"/>
<stop offset="0.07" stop-color="#2DA771"/>
<stop offset="0.48" stop-color="#15CF74"/>
<stop offset="0.8" stop-color="#06E775"/>
<stop offset="1" stop-color="#00F076"/>
</linearGradient>
</defs>
</svg>
