<svg width="21" height="21" viewBox="0 0 21 21" fill="none" xmlns="http://www.w3.org/2000/svg">
<path fill-rule="evenodd" clip-rule="evenodd" d="M6.5013 0.0750146C7.56766 0.0259237 7.90766 0.0150146 10.624 0.0150146C13.3404 0.0150146 13.6804 0.0268328 14.7458 0.0750146C15.8113 0.123196 16.5386 0.293196 17.1749 0.53956C17.8413 0.791378 18.4458 1.18501 18.9458 1.69411C19.4549 2.1932 19.8477 2.79683 20.0986 3.46411C20.3458 4.10047 20.5149 4.82774 20.564 5.89138C20.6131 6.95956 20.624 7.29956 20.624 10.015C20.624 12.7314 20.6122 13.0714 20.564 14.1377C20.5158 15.2014 20.3458 15.9287 20.0986 16.565C19.8477 17.2324 19.4543 17.837 18.9458 18.3368C18.4458 18.8459 17.8413 19.2387 17.1749 19.4896C16.5386 19.7368 15.8113 19.9059 14.7477 19.955C13.6804 20.0041 13.3404 20.015 10.624 20.015C7.90766 20.015 7.56766 20.0032 6.5013 19.955C5.43766 19.9068 4.71039 19.7368 4.07402 19.4896C3.40668 19.2386 2.80204 18.8452 2.30221 18.3368C1.79346 17.8374 1.39976 17.2331 1.14857 16.5659C0.902205 15.9296 0.733114 15.2023 0.684023 14.1387C0.634933 13.0705 0.624023 12.7305 0.624023 10.015C0.624023 7.29865 0.635842 6.95865 0.684023 5.8932C0.732205 4.82774 0.902205 4.10047 1.14857 3.46411C1.40014 2.79691 1.79413 2.19257 2.30311 1.6932C2.80224 1.18456 3.40627 0.790872 4.07311 0.53956C4.70948 0.293196 5.43675 0.124106 6.50039 0.0750146H6.5013ZM14.6649 1.87501C13.6104 1.82683 13.294 1.81683 10.624 1.81683C7.95402 1.81683 7.63766 1.82683 6.58311 1.87501C5.60766 1.91956 5.07857 2.08229 4.72584 2.21956C4.25948 2.40138 3.92584 2.61683 3.57584 2.96683C3.24406 3.28961 2.98873 3.68254 2.82857 4.11683C2.6913 4.46956 2.52857 4.99865 2.48402 5.97411C2.43584 7.02865 2.42584 7.34502 2.42584 10.015C2.42584 12.685 2.43584 13.0014 2.48402 14.0559C2.52857 15.0314 2.6913 15.5605 2.82857 15.9132C2.98857 16.3468 3.24402 16.7405 3.57584 17.0632C3.89857 17.395 4.29221 17.6505 4.72584 17.8105C5.07857 17.9477 5.60766 18.1105 6.58311 18.155C7.63766 18.2032 7.95311 18.2132 10.624 18.2132C13.2949 18.2132 13.6104 18.2032 14.6649 18.155C15.6404 18.1105 16.1695 17.9477 16.5222 17.8105C16.9886 17.6287 17.3222 17.4132 17.6722 17.0632C18.004 16.7405 18.2595 16.3468 18.4195 15.9132C18.5568 15.5605 18.7195 15.0314 18.764 14.0559C18.8122 13.0014 18.8222 12.685 18.8222 10.015C18.8222 7.34502 18.8122 7.02865 18.764 5.97411C18.7195 4.99865 18.5568 4.46956 18.4195 4.11683C18.2377 3.65047 18.0222 3.31683 17.6722 2.96683C17.3494 2.63508 16.9565 2.37975 16.5222 2.21956C16.1695 2.08229 15.6404 1.91956 14.6649 1.87501ZM9.34675 13.0977C10.0601 13.3947 10.8544 13.4348 11.594 13.2111C12.3336 12.9875 12.9726 12.514 13.4019 11.8716C13.8311 11.2292 14.0241 10.4576 13.9477 9.68875C13.8713 8.91987 13.5304 8.20135 12.9831 7.65592C12.6342 7.30727 12.2124 7.0403 11.748 6.87424C11.2835 6.70818 10.788 6.64716 10.2972 6.69557C9.80635 6.74399 9.33234 6.90063 8.9093 7.15422C8.48626 7.40782 8.1247 7.75206 7.85066 8.16215C7.57662 8.57225 7.39692 9.038 7.32449 9.52589C7.25206 10.0138 7.28871 10.5116 7.43179 10.9837C7.57487 11.4557 7.82082 11.8901 8.15195 12.2557C8.48308 12.6212 8.89114 12.9088 9.34675 13.0977ZM6.98948 6.38047C7.46677 5.90317 8.03341 5.52456 8.65702 5.26625C9.28064 5.00794 9.94903 4.87499 10.624 4.87499C11.299 4.87499 11.9674 5.00794 12.591 5.26625C13.2146 5.52456 13.7813 5.90317 14.2586 6.38047C14.7359 6.85776 15.1145 7.4244 15.3728 8.04801C15.6311 8.67163 15.764 9.34002 15.764 10.015C15.764 10.69 15.6311 11.3584 15.3728 11.982C15.1145 12.6056 14.7359 13.1723 14.2586 13.6496C13.2946 14.6135 11.9872 15.155 10.624 15.155C9.26081 15.155 7.95342 14.6135 6.98948 13.6496C6.02554 12.6856 5.484 11.3782 5.484 10.015C5.484 8.6518 6.02554 7.34441 6.98948 6.38047ZM16.904 5.64047C17.0223 5.5289 17.117 5.39472 17.1825 5.2459C17.248 5.09708 17.2829 4.93662 17.2853 4.77404C17.2877 4.61146 17.2574 4.45006 17.1963 4.29939C17.1352 4.14872 17.0444 4.01184 16.9294 3.89687C16.8145 3.78189 16.6776 3.69116 16.5269 3.63003C16.3763 3.5689 16.2148 3.53863 16.0523 3.541C15.8897 3.54337 15.7292 3.57834 15.5804 3.64383C15.4316 3.70932 15.2974 3.80401 15.1858 3.92229C14.9689 4.15231 14.8501 4.45785 14.8547 4.77404C14.8593 5.09023 14.9869 5.39218 15.2105 5.61578C15.4341 5.83938 15.7361 5.96704 16.0523 5.97165C16.3685 5.97626 16.674 5.85746 16.904 5.64047Z" fill="#1D1937"/>
</svg>
