<svg width="83" height="25" viewBox="0 0 83 25" fill="none" xmlns="http://www.w3.org/2000/svg">
<path d="M13.838 2.86999C13.5489 2.40208 13.172 1.99458 12.728 1.66999C12.2795 1.36338 11.7882 1.1248 11.27 0.961988C10.7069 0.777764 10.1255 0.655049 9.53597 0.595988C8.84605 0.528738 8.15315 0.496696 7.45997 0.499988H1.45997C1.32089 0.486851 1.18059 0.501761 1.04737 0.543834C0.914157 0.585908 0.790742 0.65429 0.684437 0.744929C0.578132 0.835569 0.491099 0.946621 0.428494 1.07151C0.36589 1.1964 0.328986 1.33258 0.319971 1.47199C0.319971 1.47199 0.319971 1.50799 0.319971 1.52599V11.27C1.15182 13.055 2.53323 14.5268 4.26197 15.47V13.514C4.2488 13.3631 4.26553 13.211 4.3112 13.0666C4.35686 12.9221 4.43057 12.7881 4.5281 12.6722C4.62563 12.5563 4.74507 12.4607 4.87958 12.391C5.01409 12.3213 5.16102 12.2788 5.31197 12.266H7.11197C9.56797 12.266 11.442 11.752 12.734 10.724C14.026 9.69599 14.682 8.17199 14.702 6.15199C14.7041 5.56986 14.6356 4.98962 14.498 4.42399C14.3608 3.87459 14.1381 3.35018 13.838 2.86999ZM10.322 7.87999C10.1127 8.24005 9.80168 8.53021 9.42797 8.71399C9.02305 8.90739 8.58553 9.02339 8.13797 9.05599C7.64636 9.11721 7.15138 9.14727 6.65597 9.14599H4.92797C4.51397 9.14599 4.25597 8.80999 4.25597 8.31799V4.29799C4.25 4.20979 4.2636 4.12135 4.29579 4.03902C4.32798 3.95668 4.37796 3.88248 4.44217 3.82171C4.50638 3.76094 4.58322 3.71511 4.6672 3.6875C4.75118 3.65989 4.84023 3.65118 4.92797 3.66199H6.65597C7.21597 3.66199 7.74397 3.67799 8.23997 3.70999C8.68202 3.7312 9.11588 3.83712 9.51797 4.02199C9.88792 4.1867 10.1965 4.46383 10.4 4.81399C10.6297 5.2835 10.735 5.80411 10.706 6.32599C10.7176 6.86693 10.5851 7.40122 10.322 7.87399V7.87999ZM4.26797 16.058C2.78834 15.5242 1.44159 14.6768 0.319971 13.574V18.284C0.307406 18.3737 0.313113 18.465 0.336748 18.5525C0.360382 18.64 0.401457 18.7217 0.457504 18.7929C0.51355 18.8641 0.58341 18.9232 0.662885 18.9667C0.742359 19.0102 0.829807 19.0372 0.919971 19.046H3.63197C4.35197 19.046 4.26797 18.278 4.26797 18.278V16.058ZM41.54 5.62999H39.2C38.9766 5.61538 38.7554 5.68025 38.5753 5.81313C38.3952 5.946 38.2679 6.1383 38.216 6.35599L35.498 13.844C35.498 13.844 33.098 7.02199 32.918 6.49399C32.8674 6.25036 32.7352 6.03131 32.5431 5.8731C32.3511 5.71489 32.1108 5.627 31.862 5.62399H29.708C28.94 5.62399 28.94 6.22399 29.042 6.45799C29.144 6.69199 32.09 14.768 33.242 17.858C33.4234 18.2384 33.5506 18.6423 33.62 19.058C33.5453 19.4683 33.3903 19.8597 33.164 20.21C33.0764 20.3585 32.976 20.499 32.864 20.63C35.084 19.97 37.664 17.564 38.96 14.966C40.268 11.366 41.99 6.56599 42.068 6.31999C42.152 5.94199 42.152 5.62999 41.54 5.62999ZM31.112 21.362C30.9113 21.3566 30.711 21.3406 30.512 21.314C30.266 21.278 29.798 21.314 29.798 21.734V23.534C29.798 24.224 30.134 24.272 30.308 24.32C30.8637 24.4419 31.4311 24.5023 32 24.5C32.6722 24.5177 33.3395 24.3801 33.95 24.098C34.5084 23.8159 35.0043 23.4241 35.408 22.946C35.8657 22.4227 36.2529 21.8417 36.56 21.218C36.892 20.554 37.208 19.82 37.508 19.016L37.856 18.062C37.16 18.752 34.088 21.65 31.112 21.362ZM27.572 7.78399C27.4445 7.4808 27.2704 7.1994 27.056 6.94999C26.8392 6.71895 26.5931 6.51724 26.324 6.34999C26.0333 6.15204 25.7238 5.98322 25.4 5.84599C25.0703 5.71823 24.7313 5.61593 24.386 5.53999C23.9908 5.45257 23.5897 5.39441 23.186 5.36599C22.754 5.32199 22.27 5.29999 21.734 5.29999C18.158 5.29999 16.122 6.42799 15.626 8.68399C15.6048 8.76808 15.6021 8.85575 15.6181 8.94098C15.6341 9.0262 15.6683 9.10695 15.7185 9.17766C15.7687 9.24837 15.8336 9.30737 15.9088 9.35058C15.984 9.3938 16.0676 9.42021 16.154 9.42799H18.356C18.956 9.42799 18.956 9.24199 19.184 8.72599C19.2839 8.44507 19.4631 8.19914 19.7 8.01799C20.2626 7.65482 20.928 7.48426 21.596 7.53199C22.2189 7.46832 22.8446 7.62316 23.366 7.96999C23.7636 8.3412 23.9987 8.8544 24.02 9.39799C24.02 10.142 23.792 10.634 22.868 10.634C20.678 10.556 18.326 10.802 17 11.564C16.3472 11.9624 15.8114 12.5264 15.4468 13.1986C15.0823 13.8709 14.9019 14.6276 14.924 15.392C14.9089 15.9874 15.03 16.5785 15.278 17.12C15.5116 17.5906 15.8503 18.0012 16.268 18.32C16.7064 18.6776 17.2125 18.9429 17.756 19.1C18.37 19.2662 19.0039 19.347 19.64 19.34C20.4956 19.3533 21.3481 19.2318 22.166 18.98C22.8889 18.6838 23.5721 18.2989 24.2 17.834V18.254C24.2 18.668 24.326 19.04 24.8 19.04H27.35C27.866 19.04 27.986 18.674 27.986 18.218V10.364C27.9891 9.87411 27.955 9.38471 27.884 8.89999C27.8273 8.51634 27.7225 8.14138 27.572 7.78399ZM24.086 15.5C24.086 15.5 23.426 16.88 21.086 16.88C20.5249 16.9058 19.9701 16.7524 19.502 16.442C19.2959 16.282 19.1331 16.073 19.0283 15.8341C18.9236 15.5952 18.8801 15.3339 18.902 15.074C18.8762 14.7249 18.957 14.3762 19.1338 14.074C19.3106 13.7719 19.575 13.5305 19.892 13.382C20.8385 13.0183 21.8486 12.849 22.862 12.884C23.017 12.8606 23.1754 12.8711 23.326 12.9147C23.4766 12.9583 23.6161 13.034 23.7346 13.1366C23.8532 13.2393 23.9482 13.3664 24.013 13.5092C24.0778 13.652 24.1109 13.8072 24.11 13.964L24.086 15.5Z" fill="#333333"/>
<path d="M82.4 10.4481C82.6956 10.9235 82.8522 11.4722 82.8522 12.0321C82.8522 12.5919 82.6956 13.1406 82.4 13.6161C81.8 14.5281 78.53 18.0201 77.45 19.1421C76.514 20.1141 75.248 21.0981 73.994 21.0981H48.0199C44.5039 21.0981 44.2939 19.8981 44.2939 17.2221V6.30807C44.2939 3.56607 45.1039 2.76807 47.5099 2.76807H74.054C75.296 2.76807 76.406 3.40407 77.654 4.68807C78.746 5.78607 81.968 9.80007 82.4 10.4481Z" fill="#33CCCC"/>
<path d="M50.1919 6.98588V6.91988C50.1919 6.56588 50.1919 6.22388 49.5919 6.22388H47.4139C46.9039 6.22388 46.8799 6.49988 46.8799 6.93188V9.81188C47.739 8.61582 48.8755 7.64608 50.1919 6.98588Z" fill="white"/>
<path d="M64.7778 17.402V17.246V10.298C64.7778 7.39004 63.4938 5.93604 60.9258 5.93604C60.211 5.9445 59.5128 6.1523 58.9098 6.53604C58.2452 6.95053 57.6517 7.46914 57.1518 8.07204C56.9255 7.42041 56.4857 6.86434 55.9038 6.49404C55.2419 6.12926 54.4928 5.95287 53.7378 5.98404C52.6273 5.98822 51.5493 6.35949 50.6718 7.04004C50.4798 7.23204 46.8737 10.04 46.8737 12.968V17.414C46.8737 17.552 46.8017 18.092 47.4077 18.092H49.6697C50.3717 18.092 50.3058 17.63 50.3058 17.438V10.238C50.6838 9.72804 51.4578 8.51004 52.7358 8.51004C52.9402 8.49144 53.1459 8.52779 53.3315 8.61535C53.5172 8.7029 53.6761 8.83847 53.7918 9.00804C54.0483 9.5203 54.1604 10.0928 54.1158 10.664V16.274V17.426C54.1158 17.564 54.0438 18.104 54.6498 18.104H56.8878C57.5898 18.104 57.5238 17.642 57.5238 17.45V17.294V10.214C57.9318 9.70404 58.7238 8.48604 59.9538 8.48604C60.1606 8.46911 60.3682 8.50609 60.5564 8.59338C60.7447 8.68066 60.9071 8.81526 61.0278 8.98404C61.2885 9.49501 61.4027 10.0682 61.3578 10.64V16.25V17.402C61.3578 17.54 61.2858 18.08 61.8918 18.08H64.1538C64.8618 18.044 64.7778 17.588 64.7778 17.402Z" fill="white"/>
<path d="M77.2522 14.576C76.8678 15.6096 76.1635 16.4934 75.2419 17.0988C74.3202 17.7043 73.2294 17.9997 72.1282 17.942C68.6722 17.942 66.3682 15.59 66.3682 12.062C66.3682 8.53401 68.7682 6.06201 72.0082 6.06201C75.2482 6.06201 77.4082 8.30601 77.5462 11.924C77.5462 12.386 77.4322 12.794 76.8502 12.794H69.5182C69.5662 14.732 70.4962 15.794 72.1522 15.794C72.5918 15.805 73.0255 15.69 73.4018 15.4625C73.7782 15.2349 74.0816 14.9044 74.2762 14.51C74.3528 14.3984 74.456 14.3076 74.5764 14.2458C74.6969 14.184 74.8308 14.1531 74.9662 14.156H76.8562C76.9129 14.1533 76.9695 14.1634 77.0217 14.1856C77.074 14.2078 77.1206 14.2415 77.1581 14.2841C77.1955 14.3268 77.2229 14.3773 77.2382 14.432C77.2534 14.4867 77.2561 14.5441 77.2462 14.6L77.2522 14.576ZM72.0202 8.30001C70.6462 8.30001 69.7162 9.25401 69.5122 10.826H74.4322C74.3062 9.45201 73.5622 8.30001 72.0202 8.30001Z" fill="white"/>
</svg>
