<svg width="107" height="27" viewBox="0 0 107 27" fill="none" xmlns="http://www.w3.org/2000/svg">
<path fill-rule="evenodd" clip-rule="evenodd" d="M8.14069 3.90466C6.7815 3.90466 5.66541 4.2924 4.82145 5.05952C3.97307 5.83962 3.54297 6.91851 3.54297 8.26608V25.2258H5.28206V8.26608C5.28206 7.32477 5.54485 6.63223 6.06254 6.2079C6.60828 5.75995 7.28788 5.54176 8.14069 5.54176C8.96448 5.54176 9.64013 5.76133 10.2026 6.20975C10.7306 6.6364 10.9978 7.32848 10.9978 8.26608V25.2258H12.7463V8.26608C12.7463 6.92361 12.3132 5.84472 11.457 5.05767C10.615 4.2924 9.4989 3.90466 8.14069 3.90466Z" fill="#E9463E"/>
<path fill-rule="evenodd" clip-rule="evenodd" d="M19.099 3.90466C17.7428 3.90466 16.6188 4.29147 15.7562 5.05767C14.895 5.84055 14.458 6.9199 14.458 8.26608V25.2258H16.1976V8.26608C16.1976 7.32848 16.4648 6.6364 16.9899 6.21161C17.5553 5.76134 18.2452 5.54176 19.099 5.54176C19.9218 5.54176 20.5867 5.75995 21.1329 6.2079C21.6506 6.63223 21.9129 7.32477 21.9129 8.26608V25.2258H23.6613V8.26608C23.6613 6.92546 23.2386 5.84796 22.4006 5.05952C21.5674 4.29332 20.4568 3.90466 19.099 3.90466Z" fill="#E9463E"/>
<path fill-rule="evenodd" clip-rule="evenodd" d="M25.1888 2.74643C24.5048 2.07519 23.6471 1.53922 22.6392 1.15334C21.6181 0.761437 20.4602 0.571045 19.099 0.571045C17.8407 0.571045 16.6986 0.760974 15.7045 1.13527C14.8733 1.44796 14.1583 1.85608 13.5737 2.35036C12.9753 1.85561 12.2721 1.44842 11.4773 1.13759C10.5172 0.761437 9.39377 0.571045 8.1389 0.571045C6.76741 0.571045 5.56126 0.766996 4.55393 1.15334C3.54118 1.54154 2.68541 2.07843 2.01221 2.74828C1.33459 3.42137 0.82329 4.25011 0.491612 5.21273C0.165347 6.16005 0 7.18706 0 8.26595V25.2257H1.74795V8.26595C1.74795 7.38903 1.88328 6.57466 2.15 5.84505C2.4118 5.12749 2.8104 4.49424 3.33154 3.96522C3.84973 3.44685 4.518 3.02484 5.31423 2.71215C6.11685 2.40548 7.0671 2.24983 8.1389 2.24983C9.23137 2.24983 10.2028 2.42864 11.0256 2.78071C11.8454 3.13184 12.6023 3.69005 13.2755 4.4405L13.614 4.81897L13.9536 4.44097C15.2769 2.96693 16.9604 2.24983 19.099 2.24983C20.163 2.24983 21.1132 2.40595 21.9193 2.71076C22.718 3.02391 23.3754 3.44453 23.8749 3.96058C24.3887 4.48961 24.774 5.10711 25.0525 5.84505C25.3187 6.57466 25.4541 7.38903 25.4541 8.26595V25.2257H27.1936V8.26595C27.1936 7.16112 27.0278 6.13319 26.702 5.21273C26.3723 4.25567 25.8645 3.42693 25.1888 2.74643Z" fill="#E9463E"/>
<path fill-rule="evenodd" clip-rule="evenodd" d="M40.6717 21.084C41.1963 21.532 41.8129 21.8808 42.5053 22.1189C43.1893 22.3524 43.9147 22.471 44.6622 22.471C45.4112 22.471 46.1292 22.3524 46.7955 22.118C47.4721 21.8813 48.0823 21.5339 48.6025 21.0882C49.1315 20.6528 49.5606 20.0955 49.8765 19.4354C50.1915 18.7878 50.3514 18.0461 50.3514 17.2317V1.15771H48.603V17.2317C48.603 18.3834 48.2575 19.2765 47.576 19.8893C46.8777 20.524 45.924 20.8334 44.6622 20.8334C43.3896 20.8334 42.4276 20.524 41.7189 19.8861C41.0275 19.2718 40.6776 18.3792 40.6776 17.2317V1.15771H38.9287V17.2317C38.9287 18.0387 39.0847 18.7785 39.3962 19.4382C39.7284 20.1117 40.1481 20.6518 40.6717 21.084Z" fill="#E9463E"/>
<path fill-rule="evenodd" clip-rule="evenodd" d="M52.1452 17.2317C52.1452 18.2555 51.9292 19.2056 51.5045 20.0524C51.0779 20.9043 50.5257 21.6233 49.82 22.2477C49.1291 22.8518 48.326 23.321 47.4323 23.643C45.675 24.2827 43.6559 24.2813 41.8657 23.6421C40.9597 23.3183 40.1517 22.849 39.4647 22.2496C38.7575 21.6237 38.2059 20.9052 37.7783 20.0524C37.3526 19.2047 37.137 18.2555 37.137 17.2317V1.15771H35.3975V17.2317C35.3975 18.488 35.6396 19.6517 36.1169 20.6889C36.6002 21.7483 37.267 22.6665 38.0962 23.4123C38.9322 24.1817 39.9283 24.7853 41.0562 25.2064C42.1757 25.6247 43.3897 25.8369 44.6633 25.8369C45.9314 25.8369 47.142 25.6247 48.2615 25.2064C49.386 24.7872 50.3766 24.1822 51.2038 23.4123C52.0252 22.6567 52.6934 21.7423 53.1919 20.6903C53.6752 19.6397 53.9202 18.476 53.9202 17.2317V1.15771H52.1452V17.2317Z" fill="#E9463E"/>
<path fill-rule="evenodd" clip-rule="evenodd" d="M78.03 2.97765C77.2018 2.22396 76.2126 1.62962 75.0931 1.21177C72.8599 0.359873 70.1027 0.364969 67.8843 1.21038C66.7569 1.63101 65.7623 2.22535 64.9302 2.97441C64.0921 3.71884 63.4243 4.64069 62.945 5.71124C62.4682 6.75678 62.2256 7.92553 62.2256 9.18462V25.2258H63.9652V9.18462C63.9652 8.13909 64.1812 7.17833 64.6064 6.33013C65.0316 5.48101 65.598 4.74909 66.2889 4.15429C66.9783 3.55948 67.7888 3.08883 68.7002 2.7553C70.488 2.08591 72.4973 2.0836 74.258 2.75622C75.1502 3.08559 75.9336 3.54327 76.6506 4.15429C77.341 4.74862 77.9065 5.48101 78.3326 6.33013C78.7578 7.17833 78.9733 8.13909 78.9733 9.18462V25.2258H80.7489V9.18462C80.7489 7.93156 80.5003 6.76233 80.0117 5.71124C79.5284 4.6532 78.8616 3.73366 78.03 2.97765Z" fill="#E9463E"/>
<path fill-rule="evenodd" clip-rule="evenodd" d="M75.438 5.31012C74.9055 4.84549 74.2949 4.49111 73.6226 4.25579C72.2895 3.7893 70.7035 3.78838 69.3305 4.25532C68.6435 4.49204 68.0259 4.84688 67.4974 5.30781C66.9541 5.77383 66.524 6.33852 66.2199 6.98243C65.9114 7.62726 65.7549 8.36798 65.7549 9.18421V25.2253H67.5033V9.18421C67.5033 8.00063 67.8444 7.11816 68.5466 6.48722C69.2542 5.85073 70.2168 5.54128 71.4884 5.54128C72.7506 5.54128 73.7033 5.85026 74.3997 6.48351C75.0925 7.12094 75.4292 8.00387 75.4292 9.18421V25.2253H77.1776V9.18421C77.1776 8.38003 77.0182 7.6393 76.7047 6.98428C76.3907 6.31999 75.9759 5.77151 75.438 5.31012Z" fill="#E9463E"/>
<path fill-rule="evenodd" clip-rule="evenodd" d="M105.129 17.4244C105.129 18.4653 104.915 19.4135 104.488 20.2455C104.061 21.0983 103.509 21.8173 102.804 22.4403C102.115 23.0426 101.314 23.5118 100.427 23.8356C98.6402 24.4795 96.6482 24.4786 94.8491 23.8347C93.9539 23.5151 93.1488 23.0458 92.4569 22.4417C91.7488 21.8154 91.1785 21.077 90.7616 20.2455C90.3424 19.4098 90.1298 18.4606 90.1298 17.4244V8.61027C90.1298 7.55223 90.3424 6.59193 90.7616 5.75577C91.1819 4.91638 91.7513 4.18446 92.4535 3.57993C93.1479 2.98096 93.9554 2.51031 94.855 2.18094C95.7496 1.84602 96.689 1.67601 97.6467 1.67601C98.6151 1.67601 99.5216 1.84092 100.421 2.1814C101.313 2.51355 102.115 2.98466 102.806 3.57993C103.496 4.1752 104.062 4.90665 104.49 5.75902C104.915 6.58822 105.129 7.54713 105.129 8.61027V17.4244ZM106.175 5.1341C105.676 4.06355 105.011 3.14495 104.195 2.4033C103.365 1.64821 102.372 1.05387 101.248 0.636957C99.0206 -0.212628 96.2703 -0.211701 94.0484 0.63603C92.9274 1.05434 91.9309 1.64821 91.083 2.40144C90.2415 3.15884 89.5732 4.07977 89.0993 5.1392C88.6235 6.20373 88.3818 7.3711 88.3818 8.61027V17.4244C88.3818 18.6612 88.6235 19.823 89.1003 20.8811C89.5767 21.9271 90.2435 22.8443 91.0815 23.6063C91.9274 24.3767 92.9249 24.9794 94.0484 25.3986C95.1699 25.8178 96.3805 26.03 97.6467 26.03C98.9133 26.03 100.124 25.8178 101.244 25.3995C102.375 24.9812 103.369 24.3767 104.197 23.6045C105.008 22.8591 105.673 21.9442 106.174 20.8852C106.664 19.8402 106.913 18.6756 106.913 17.4244V8.61027C106.913 7.35627 106.664 6.18659 106.175 5.1341Z" fill="#E9463E"/>
<path fill-rule="evenodd" clip-rule="evenodd" d="M101.596 17.4244C101.596 18.5709 101.248 19.4636 100.557 20.0834C99.8689 20.7176 98.9162 21.0256 97.6455 21.0256C96.3794 21.0256 95.4207 20.7167 94.7092 20.0769C94.0143 19.4659 93.6615 18.5742 93.6615 17.4244V8.61031C93.6615 7.42441 94.0045 6.54286 94.7136 5.91285C95.4207 5.27682 96.3794 4.96784 97.6455 4.96784C98.9162 4.96784 99.8689 5.2759 100.559 5.91146C101.257 6.54518 101.596 7.42765 101.596 8.61031V17.4244ZM101.639 4.73622C101.108 4.27298 100.491 3.91814 99.8029 3.68096C98.4305 3.21355 96.8429 3.21725 95.498 3.68096C94.8228 3.91026 94.2033 4.26464 93.6521 4.73622C93.1147 5.20548 92.6891 5.76832 92.3864 6.40852C92.0779 7.05335 91.9209 7.79408 91.9209 8.61031V17.4244C91.9209 18.2309 92.0769 18.9721 92.3864 19.6271C92.6979 20.2761 93.1256 20.8315 93.658 21.279C94.2062 21.74 94.8091 22.0772 95.4965 22.3125C96.1722 22.5451 96.8961 22.6632 97.6455 22.6632C98.3921 22.6632 99.1174 22.5455 99.8054 22.3125C100.496 22.073 101.113 21.7242 101.634 21.279C102.167 20.8306 102.595 20.2752 102.907 19.6239C103.215 18.9702 103.371 18.2304 103.371 17.4244V8.61031C103.371 7.795 103.215 7.05521 102.907 6.40991C102.604 5.76925 102.178 5.20641 101.639 4.73622Z" fill="#E9463E"/>
</svg>
