<svg width="185" height="48" viewBox="0 0 185 48" fill="none" xmlns="http://www.w3.org/2000/svg">
<path fill-rule="evenodd" clip-rule="evenodd" d="M14.0834 7.2002C11.7315 7.2002 9.80022 7.91519 8.33985 9.32979C6.8718 10.7683 6.12756 12.7578 6.12756 15.2428V46.517H9.13688V15.2428C9.13688 13.507 9.5916 12.2299 10.4874 11.4474C11.4318 10.6214 12.6077 10.219 14.0834 10.219C15.5089 10.219 16.6781 10.6239 17.6514 11.4508C18.5651 12.2376 19.0274 13.5138 19.0274 15.2428V46.517H22.0529V15.2428C22.0529 12.7672 21.3036 10.7777 19.8219 9.32637C18.3649 7.91519 16.4337 7.2002 14.0834 7.2002Z" fill="#FFFFFE"/>
<path fill-rule="evenodd" clip-rule="evenodd" d="M33.0489 7.2002C30.7021 7.2002 28.7571 7.91348 27.2644 9.32637C25.7742 10.77 25.0181 12.7604 25.0181 15.2428V46.517H28.0282V15.2428C28.0282 13.5138 28.4906 12.2376 29.3992 11.4543C30.3776 10.6239 31.5715 10.219 33.0489 10.219C34.4726 10.219 35.6231 10.6214 36.5683 11.4474C37.4641 12.2299 37.9179 13.507 37.9179 15.2428V46.517H40.9434V15.2428C40.9434 12.7706 40.212 10.7837 38.7618 9.32979C37.3202 7.91689 35.3983 7.2002 33.0489 7.2002Z" fill="#FFFFFE"/>
<path fill-rule="evenodd" clip-rule="evenodd" d="M43.5866 5.06468C42.4029 3.82691 40.9187 2.83856 39.1748 2.12699C37.4078 1.40431 35.4042 1.05322 33.0488 1.05322C30.8715 1.05322 28.8951 1.40346 27.175 2.09367C25.7367 2.67028 24.4995 3.42285 23.4878 4.33432C22.4524 3.422 21.2355 2.67113 19.8603 2.09795C18.199 1.40431 16.2549 1.05322 14.0835 1.05322C11.7103 1.05322 9.62317 1.41456 7.88008 2.12699C6.12763 2.84283 4.64682 3.83288 3.48192 5.0681C2.30936 6.3093 1.42461 7.83751 0.850681 9.6126C0.286115 11.3595 0 13.2533 0 15.2428V46.517H3.02464V15.2428C3.02464 13.6258 3.25882 12.124 3.72035 10.7786C4.17336 9.45542 4.8631 8.28769 5.76488 7.31216C6.66154 6.35628 7.81792 5.57808 9.1957 5.00147C10.5846 4.43597 12.2289 4.14895 14.0835 4.14895C15.9739 4.14895 17.6548 4.47868 19.0786 5.1279C20.4972 5.7754 21.8069 6.80475 22.9718 8.1886L23.5577 8.88651L24.1452 8.18945C26.435 5.4713 29.3481 4.14895 33.0488 4.14895C34.8899 4.14895 36.5342 4.43683 37.929 4.99891C39.311 5.57637 40.4487 6.35201 41.313 7.30362C42.202 8.27915 42.8687 9.41784 43.3507 10.7786C43.8114 12.124 44.0455 13.6258 44.0455 15.2428V46.517H47.0557V15.2428C47.0557 13.2055 46.7687 11.31 46.205 9.6126C45.6345 7.84776 44.7557 6.31955 43.5866 5.06468Z" fill="#FFFFFE"/>
<path fill-rule="evenodd" clip-rule="evenodd" d="M70.3758 38.8794C71.2835 39.7055 72.3505 40.3487 73.5486 40.7878C74.7322 41.2183 75.9873 41.437 77.2808 41.437C78.5769 41.437 79.8192 41.2183 80.9722 40.7861C82.1431 40.3496 83.199 39.7089 84.0991 38.8871C85.0145 38.0842 85.757 37.0565 86.3037 35.8392C86.8486 34.645 87.1254 33.2774 87.1254 31.7757V2.13477H84.0999V31.7757C84.0999 33.8993 83.5021 35.5462 82.3228 36.6764C81.1144 37.8467 79.4642 38.4173 77.2808 38.4173C75.0788 38.4173 73.414 37.8467 72.1878 36.6704C70.9914 35.5377 70.386 33.8916 70.386 31.7757V2.13477H67.3596V31.7757C67.3596 33.2637 67.6296 34.6279 68.1686 35.8444C68.7434 37.0864 69.4697 38.0824 70.3758 38.8794Z" fill="#FFFFFE"/>
<path fill-rule="evenodd" clip-rule="evenodd" d="M90.2274 31.7757C90.2274 33.6635 89.8536 35.4155 89.1187 36.9771C88.3804 38.548 87.425 39.8738 86.2039 41.0253C85.0084 42.1392 83.6187 43.0045 82.0723 43.5982C79.0315 44.7779 75.5376 44.7753 72.4397 43.5965C70.8721 42.9994 69.4739 42.134 68.2851 41.0287C67.0615 39.8746 66.1069 38.5497 65.3669 36.9771C64.6303 35.4138 64.2574 33.6635 64.2574 31.7757V2.13477H61.2472V31.7757C61.2472 34.0923 61.6661 36.2382 62.4921 38.1508C63.3283 40.1044 64.4822 41.7975 65.917 43.1728C67.3638 44.5917 69.0873 45.7047 71.039 46.4812C72.9762 47.2526 75.0769 47.6438 77.2807 47.6438C79.4751 47.6438 81.5699 47.2526 83.5071 46.4812C85.4529 45.7081 87.167 44.5925 88.5984 43.1728C90.0196 41.7795 91.176 40.0933 92.0386 38.1533C92.8748 36.216 93.2989 34.0701 93.2989 31.7757V2.13477H90.2274V31.7757Z" fill="#FFFFFE"/>
<path fill-rule="evenodd" clip-rule="evenodd" d="M135.021 5.49089C133.588 4.10106 131.876 3.00508 129.939 2.23456C126.075 0.663636 121.303 0.673033 117.465 2.232C115.514 3.00764 113.793 4.10362 112.353 5.48491C110.903 6.85765 109.747 8.55757 108.918 10.5317C108.093 12.4597 107.673 14.6149 107.673 16.9367V46.517H110.683V16.9367C110.683 15.0087 111.057 13.237 111.793 11.6729C112.528 10.1071 113.509 8.75746 114.704 7.66063C115.897 6.5638 117.3 5.6959 118.877 5.08086C121.97 3.8465 125.447 3.84222 128.494 5.08256C130.038 5.68992 131.393 6.5339 132.634 7.66063C133.829 8.75661 134.807 10.1071 135.544 11.6729C136.28 13.237 136.653 15.0087 136.653 16.9367V46.517H139.726V16.9367C139.726 14.626 139.296 12.4699 138.45 10.5317C137.614 8.58063 136.46 6.88499 135.021 5.49089Z" fill="#FFFFFE"/>
<path fill-rule="evenodd" clip-rule="evenodd" d="M130.541 9.79228C129.619 8.93549 128.563 8.282 127.399 7.84805C125.093 6.98784 122.348 6.98614 119.972 7.8472C118.784 8.28371 117.715 8.93805 116.8 9.78801C115.86 10.6474 115.116 11.6887 114.59 12.876C114.056 14.0651 113.785 15.431 113.785 16.9362V46.5165H116.811V16.9362C116.811 14.7536 117.401 13.1263 118.616 11.9629C119.84 10.7892 121.506 10.2185 123.706 10.2185C125.89 10.2185 127.539 10.7883 128.744 11.956C129.943 13.1315 130.525 14.7596 130.525 16.9362V46.5165H133.551V16.9362C133.551 15.4533 133.275 14.0873 132.732 12.8795C132.189 11.6545 131.471 10.6431 130.541 9.79228Z" fill="#FFFFFE"/>
<path fill-rule="evenodd" clip-rule="evenodd" d="M181.913 32.131C181.913 34.0504 181.542 35.799 180.804 37.3332C180.064 38.9059 179.109 40.2316 177.89 41.3806C176.697 42.4911 175.311 43.3564 173.776 43.9535C170.685 45.1409 167.238 45.1392 164.125 43.9518C162.576 43.3624 161.183 42.4971 159.985 41.3831C158.76 40.2282 157.773 38.8666 157.052 37.3332C156.326 35.7922 155.958 34.0419 155.958 32.131V15.8776C155.958 13.9265 156.326 12.1557 157.052 10.6138C157.779 9.06594 158.764 7.71625 159.979 6.60148C161.181 5.49697 162.578 4.62907 164.135 4.02171C165.683 3.4041 167.308 3.0906 168.966 3.0906C170.641 3.0906 172.21 3.39471 173.766 4.02257C175.309 4.63505 176.697 5.5038 177.893 6.60148C179.088 7.69917 180.067 9.048 180.807 10.6198C181.542 12.1488 181.913 13.9171 181.913 15.8776V32.131ZM183.723 9.46742C182.86 7.4933 181.708 5.79936 180.297 4.43174C178.861 3.03935 177.143 1.94337 175.198 1.17457C171.343 -0.392091 166.584 -0.390383 162.739 1.17286C160.799 1.94423 159.075 3.03935 157.608 4.42832C156.152 5.82499 154.995 7.5232 154.175 9.47682C153.352 11.4398 152.934 13.5925 152.934 15.8776V32.131C152.934 34.4118 153.352 36.5542 154.177 38.5052C155.001 40.4341 156.155 42.1255 157.605 43.5307C159.069 44.9513 160.795 46.0626 162.739 46.8357C164.68 47.6088 166.775 48 168.966 48C171.157 48 173.252 47.6088 175.19 46.8374C177.147 46.066 178.867 44.9513 180.299 43.5273C181.704 42.1528 182.854 40.4657 183.721 38.5129C184.57 36.5858 185 34.4383 185 32.131V15.8776C185 13.5652 184.57 11.4082 183.723 9.46742Z" fill="#FFFFFE"/>
<path fill-rule="evenodd" clip-rule="evenodd" d="M175.801 32.1312C175.801 34.2454 175.2 35.8915 174.004 37.0345C172.813 38.2039 171.164 38.772 168.966 38.772C166.775 38.772 165.116 38.2022 163.884 37.0225C162.682 35.8958 162.072 34.2514 162.072 32.1312V15.8778C162.072 13.6909 162.665 12.0654 163.892 10.9036C165.116 9.73074 166.775 9.16097 168.966 9.16097C171.164 9.16097 172.813 9.72903 174.007 10.901C175.214 12.0696 175.801 13.6969 175.801 15.8778V32.1312ZM175.877 8.73386C174.958 7.87963 173.89 7.22529 172.699 6.78792C170.324 5.926 167.577 5.93284 165.249 6.78792C164.081 7.21076 163.009 7.86425 162.055 8.73386C161.126 9.59919 160.389 10.6371 159.865 11.8176C159.331 13.0067 159.06 14.3726 159.06 15.8778V32.1312C159.06 33.6184 159.33 34.9852 159.865 36.1931C160.404 37.3898 161.144 38.4141 162.066 39.2392C163.014 40.0892 164.057 40.7111 165.247 41.145C166.416 41.5739 167.669 41.7917 168.966 41.7917C170.257 41.7917 171.513 41.5747 172.703 41.145C173.898 40.7034 174.965 40.0602 175.866 39.2392C176.789 38.4124 177.529 37.3881 178.069 36.1871C178.602 34.9818 178.872 33.6176 178.872 32.1312V15.8778C178.872 14.3743 178.602 13.0101 178.069 11.8202C177.545 10.6388 176.808 9.6009 175.877 8.73386Z" fill="#FFFFFE"/>
</svg>
