<svg width="18" height="21" viewBox="0 0 18 21" fill="none" xmlns="http://www.w3.org/2000/svg">
<path d="M9.75126 0.0318905C10.8419 0.0150146 11.9264 0.0250152 13.0096 0.0150146C13.0752 1.29071 13.534 2.59015 14.4678 3.49208C15.3997 4.4165 16.7179 4.83965 18.0004 4.98278V8.33858C16.7985 8.29921 15.5909 8.04919 14.5003 7.53167C14.0252 7.31665 13.5827 7.03976 13.1496 6.75662C13.1439 9.19175 13.1596 11.6238 13.1339 14.0489C13.0689 15.2139 12.6845 16.3734 12.007 17.3334C10.9169 18.9316 9.02497 19.9736 7.08174 20.0061C5.8898 20.0742 4.69912 19.7492 3.68344 19.1504C2.00022 18.1579 0.815784 16.3409 0.643275 14.3908C0.621546 13.9778 0.618209 13.564 0.633275 13.1507C0.783283 11.565 1.5677 10.048 2.78526 9.01612C4.16534 7.81418 6.09857 7.24165 7.90866 7.58042C7.92554 8.81486 7.87616 10.048 7.87616 11.2825C7.04924 11.015 6.08294 11.09 5.3604 11.5919C4.83177 11.9401 4.43229 12.4525 4.22347 13.0501C4.05096 13.4726 4.10033 13.942 4.11033 14.3908C4.30847 15.7584 5.62354 16.9078 7.02736 16.7834C7.95804 16.7734 8.84996 16.2334 9.33499 15.4427C9.49187 15.1658 9.66751 14.8827 9.67688 14.557C9.75876 13.0663 9.72626 11.5819 9.73626 10.0912C9.74313 6.73162 9.72626 3.38144 9.75188 0.0325156L9.75126 0.0318905Z" fill="#1D1937"/>
</svg>
