<svg width="50" height="17" viewBox="0 0 50 17" fill="none" xmlns="http://www.w3.org/2000/svg">
<path d="M26.0467 5.61501C26.0184 7.84388 28.033 9.0876 29.5506 9.82714C31.1098 10.5858 31.6336 11.0724 31.6274 11.751C31.6158 12.7894 30.3836 13.2477 29.2307 13.2655C27.2192 13.2966 26.0496 12.7224 25.1198 12.2881L24.3952 15.6788C25.328 16.1087 27.0554 16.4835 28.8467 16.5C33.0515 16.5 35.8023 14.4244 35.8172 11.2063C35.8337 7.12215 30.168 6.89609 30.2067 5.07057C30.2201 4.51703 30.7483 3.92633 31.9057 3.77614C32.4786 3.70027 34.06 3.64221 35.853 4.46787L36.5568 1.18728C35.5925 0.836188 34.3533 0.5 32.8103 0.5C28.8527 0.5 26.0691 2.60384 26.0467 5.61501ZM43.3189 0.782576C42.5511 0.782576 41.904 1.23044 41.6153 1.91772L35.609 16.259H39.8106L40.6468 13.9483H45.7811L46.2662 16.259H49.9695L46.7378 0.782576H43.3189ZM43.9066 4.96335L45.1192 10.7749H41.7984L43.9066 4.96335ZM20.9524 0.782769L17.6404 16.2588H21.6443L24.9547 0.782382H20.9524V0.782769ZM15.0293 0.782382L10.8619 11.3165L9.17612 2.35978C8.97832 1.35992 8.19717 0.782576 7.3297 0.782576H0.517293L0.421875 1.23199C1.82043 1.53547 3.40944 2.02494 4.37213 2.54868C4.96128 2.86861 5.12928 3.14828 5.32283 3.90853L8.51574 16.259H12.7468L19.2337 0.782576H15.0293" fill="url(#paint0_linear)"/>
<defs>
<linearGradient id="paint0_linear" x1="23.2009" y1="16.821" x2="23.664" y2="0.388726" gradientUnits="userSpaceOnUse">
<stop stop-color="#222357"/>
<stop offset="1" stop-color="#254AA5"/>
</linearGradient>
</defs>
</svg>
