<svg width="128" height="128" viewBox="0 0 128 128" fill="none" xmlns="http://www.w3.org/2000/svg">
<rect width="128" height="128" fill="#D75246"/>
<path fill-rule="evenodd" clip-rule="evenodd" d="M51.3557 42.1123C48.2069 42.1123 45.6212 43.0559 43.666 44.9228C41.7005 46.8212 40.7041 49.4468 40.7041 52.7263V93.9995H44.7331V52.7263C44.7331 50.4355 45.3419 48.7501 46.5412 47.7175C47.8056 46.6273 49.38 46.0963 51.3557 46.0963C53.2642 46.0963 54.8295 46.6307 56.1326 47.722C57.3559 48.7603 57.9749 50.4445 57.9749 52.7263V93.9995H62.0256V52.7263C62.0256 49.4592 61.0223 46.8336 59.0386 44.9183C57.088 43.0559 54.5023 42.1123 51.3557 42.1123Z" fill="white"/>
<path fill-rule="evenodd" clip-rule="evenodd" d="M76.7471 42.1123C73.6051 42.1123 71.0011 43.0536 69.0026 44.9183C67.0075 46.8235 65.9951 49.4502 65.9951 52.7263V93.9995H70.0252V52.7263C70.0252 50.4445 70.6443 48.7603 71.8608 47.7265C73.1707 46.6307 74.7691 46.0963 76.7471 46.0963C78.6533 46.0963 80.1935 46.6273 81.459 47.7175C82.6583 48.7501 83.266 50.4355 83.266 52.7263V93.9995H87.3166V52.7263C87.3166 49.4637 86.3373 46.8415 84.3958 44.9228C82.4656 43.0581 79.8925 42.1123 76.7471 42.1123Z" fill="white"/>
<path fill-rule="evenodd" clip-rule="evenodd" d="M90.8554 39.294C89.2707 37.6605 87.2836 36.3562 84.9487 35.4171C82.5831 34.4633 79.9005 34 76.7471 34C73.8319 34 71.1858 34.4622 68.8829 35.3731C66.9573 36.1341 65.3008 37.1273 63.9464 38.3301C62.5601 37.1261 60.9309 36.1352 59.0897 35.3787C56.8655 34.4633 54.2627 34 51.3555 34C48.1782 34 45.3839 34.4769 43.0502 35.4171C40.7039 36.3618 38.7213 37.6684 37.1617 39.2985C35.5919 40.9366 34.4073 42.9534 33.6389 45.296C32.8831 47.6014 32.5 50.1008 32.5 52.7264V93.9996H36.5495V52.7264C36.5495 50.5923 36.863 48.6104 37.4809 46.8348C38.0875 45.0886 39.0109 43.5475 40.2182 42.2601C41.4187 40.9986 42.9669 39.9716 44.8116 39.2106C46.671 38.4643 48.8725 38.0855 51.3555 38.0855C53.8865 38.0855 56.137 38.5207 58.0432 39.3774C59.9425 40.232 61.6959 41.5904 63.2555 43.4167L64.0399 44.3378L64.8265 43.4179C67.8922 39.8306 71.7923 38.0855 76.7471 38.0855C79.2119 38.0855 81.4134 38.4654 83.2808 39.2072C85.1311 39.9693 86.6542 40.9929 87.8114 42.2488C89.0016 43.5362 89.8943 45.039 90.5396 46.8348C91.1564 48.6104 91.4699 50.5923 91.4699 52.7264V93.9996H95.5V52.7264C95.5 50.0376 95.1158 47.5361 94.3611 45.296C93.5972 42.9669 92.4207 40.9501 90.8554 39.294Z" fill="white"/>
</svg>
